<svg width="21" height="57" viewBox="0 0 21 57" fill="none" xmlns="http://www.w3.org/2000/svg">
<g clip-path="url(#clip0_45_18)">
<path d="M19.8756 54.7817V55.582H14.5926V54.7817H16.7732V54.4112C16.7733 54.2457 16.7606 54.0805 16.7352 53.9172C16.7084 53.7435 16.6521 53.5763 16.5689 53.4231L14.5926 52.03V51.0667L17.082 52.8699L18.5073 51.8818C18.6213 51.8095 18.7266 51.7233 18.8209 51.625C18.8901 51.5556 18.9507 51.4776 19.0014 51.3928C19.0412 51.3257 19.07 51.2522 19.0869 51.1754V50.9778V50.8H19.8709V51.0865C19.8783 51.2082 19.8783 51.3303 19.8709 51.4521C19.8571 51.5715 19.8217 51.6872 19.7663 51.7929C19.702 51.9225 19.6187 52.0408 19.5193 52.1437C19.3747 52.2838 19.2153 52.4064 19.0442 52.5092L17.4241 53.5615C17.4749 53.6881 17.51 53.8209 17.5286 53.9567C17.5476 54.0892 17.5571 54.2229 17.5571 54.3568V54.8212L19.8756 54.7817Z" fill="#231F20" stroke="#231F20" stroke-width="0.7" stroke-miterlimit="10"/>
<path d="M17.2435 43.5181C17.6188 43.5162 17.9899 43.5987 18.3315 43.7601C18.6611 43.9139 18.9581 44.1338 19.2057 44.4073C19.4532 44.682 19.6497 45.0019 19.7853 45.3509C19.9984 45.8931 20.0544 46.4883 19.9464 47.0633C19.8383 47.6382 19.5709 48.1677 19.1772 48.5866C18.9169 48.8516 18.6106 49.0628 18.2745 49.2091C17.9211 49.3637 17.5414 49.4427 17.158 49.4413C16.7859 49.4432 16.4178 49.3606 16.0796 49.1992C15.7529 49.0452 15.459 48.8253 15.2149 48.552C14.7153 47.9861 14.4388 47.2454 14.4405 46.4772C14.4373 46.0825 14.51 45.6912 14.6543 45.3262C14.7915 44.976 14.9932 44.6572 15.2481 44.3875C15.5035 44.1194 15.8048 43.9033 16.1366 43.7503C16.4862 43.5944 16.8631 43.5153 17.2435 43.5181ZM17.196 44.3233C16.9227 44.3209 16.6521 44.3799 16.4026 44.4962C16.1645 44.6081 15.9498 44.7676 15.7707 44.9655C15.5937 45.1671 15.4551 45.4018 15.3622 45.6571C15.2657 45.9222 15.2174 46.2037 15.2196 46.4871C15.2166 46.7791 15.2666 47.069 15.3669 47.3417C15.4599 47.5978 15.6021 47.8315 15.785 48.0284C15.9709 48.2221 16.1901 48.3779 16.4311 48.4878C16.6901 48.5991 16.9681 48.6545 17.2483 48.6508C17.5191 48.6529 17.7869 48.5922 18.0322 48.473C18.2721 48.3556 18.4857 48.1873 18.6593 47.979C18.8373 47.7781 18.9761 47.5432 19.0679 47.2874C19.274 46.7548 19.274 46.16 19.0679 45.6275C18.868 45.1158 18.4847 44.7048 17.9989 44.4814C17.7455 44.3688 17.4715 44.3148 17.196 44.3233Z" fill="#231F20" stroke="#231F20" stroke-width="0.7" stroke-miterlimit="10"/>
<path d="M18.4027 38.9732L16.2458 40.8257H19.8755V41.6161H15.3383L14.5924 42.2534V41.216L17.1865 38.9732L14.5924 36.6958V35.6584L15.3383 36.3006H19.8755V37.0861H16.2458L18.4027 38.9732Z" fill="#231F20" stroke="#231F20" stroke-width="0.7" stroke-miterlimit="10"/>
<path d="M18.816 29.088C18.814 29.2996 18.8283 29.5111 18.8588 29.7204C18.8916 29.9031 18.9508 30.0797 19.0346 30.244H19.8755V31.0295H19.0346C18.9323 31.2023 18.8675 31.3961 18.8445 31.5976C18.8252 31.7929 18.8157 31.9891 18.816 32.1855C18.8169 32.4823 18.7604 32.7763 18.6497 33.05C18.5446 33.3139 18.3932 33.5551 18.2032 33.7613C18.0162 33.9693 17.7918 34.1371 17.5428 34.2554C17.2883 34.3779 17.0108 34.4403 16.7304 34.4381C16.4483 34.441 16.1692 34.3786 15.9132 34.2554C15.662 34.1385 15.4359 33.9705 15.2481 33.7613C15.0581 33.5551 14.9066 33.3138 14.8015 33.05C14.6909 32.7763 14.6343 32.4823 14.6352 32.1855V31.0295H14.3834V30.244H14.6352V29.088C14.6338 28.7975 14.6904 28.5098 14.8015 28.2433C14.9056 27.9832 15.0573 27.7467 15.2481 27.5467C15.6441 27.1432 16.1759 26.9163 16.7304 26.9144C17.0097 26.9135 17.2862 26.9724 17.5428 27.0873C17.7913 27.1948 18.017 27.3523 18.207 27.5507C18.3969 27.749 18.5474 27.9844 18.6497 28.2433C18.7608 28.5098 18.8174 28.7975 18.816 29.088ZM18.0369 32.1855C18.0342 31.9725 18.0453 31.7596 18.0701 31.5482C18.0967 31.3646 18.1581 31.1883 18.2507 31.0295H15.4001V32.1855C15.3998 32.3688 15.4354 32.5503 15.5046 32.719C15.5692 32.8819 15.6645 33.0297 15.7849 33.1537C15.9086 33.2847 16.0566 33.3882 16.22 33.4578C16.3833 33.5274 16.5586 33.5618 16.7351 33.5588C16.9098 33.5575 17.0825 33.5206 17.2435 33.4501C17.4013 33.383 17.5438 33.282 17.6615 33.1537C17.7789 33.0282 17.8724 32.8807 17.9371 32.719C18.0069 32.5507 18.0409 32.3687 18.0369 32.1855ZM18.0369 29.088C18.0394 28.9044 18.0037 28.7224 17.9324 28.5545C17.8665 28.3935 17.7732 28.2462 17.6568 28.1198C17.5365 27.9946 17.3947 27.8941 17.2387 27.8233C17.0774 27.7545 16.9047 27.7192 16.7304 27.7196C16.5543 27.7178 16.3798 27.753 16.2173 27.8233C16.0626 27.8965 15.9212 27.9968 15.7992 28.1198C15.6798 28.2446 15.5846 28.3922 15.5189 28.5545C15.4496 28.7231 15.4141 28.9046 15.4144 29.088V30.244H18.2649C18.1657 30.0759 18.104 29.8869 18.0844 29.6907C18.0564 29.491 18.0406 29.2898 18.0369 29.088Z" fill="#231F20" stroke="#231F20" stroke-width="0.7" stroke-miterlimit="10"/>
<path d="M17.2434 19.3906C17.6183 19.387 17.9895 19.4679 18.3314 19.6278C18.6592 19.7821 18.9547 20.002 19.2008 20.2749C19.4483 20.5496 19.6448 20.8695 19.7804 21.2185C19.9936 21.7607 20.0495 22.356 19.9415 22.9309C19.8334 23.5058 19.5661 24.0353 19.1723 24.4542C18.9122 24.7207 18.6059 24.9336 18.2696 25.0816C17.9154 25.2327 17.536 25.3099 17.1532 25.3089C16.7808 25.3132 16.4122 25.2305 16.0747 25.0668C15.748 24.9129 15.4541 24.6929 15.21 24.4197C14.9648 24.1432 14.7714 23.8215 14.6399 23.4712C14.3613 22.7397 14.3613 21.9253 14.6399 21.1938C14.9167 20.4882 15.4491 19.924 16.1222 19.6228C16.4755 19.4625 16.858 19.3833 17.2434 19.3906ZM17.1959 20.1909C16.9226 20.1886 16.6519 20.2475 16.4025 20.3638C15.9218 20.5926 15.5477 21.01 15.362 21.5248C15.1689 22.0683 15.1689 22.6658 15.362 23.2093C15.455 23.4654 15.5973 23.6991 15.7801 23.896C15.9648 24.0913 16.1842 24.2474 16.4263 24.3554C16.6852 24.4667 16.9632 24.5222 17.2434 24.5185C17.5138 24.5223 17.7817 24.4632 18.0273 24.3456C18.2664 24.2268 18.4798 24.0588 18.6545 23.8516C19.0044 23.4356 19.1983 22.9024 19.2008 22.3498C19.2018 21.7832 18.9925 21.2382 18.6164 20.8282C18.432 20.6336 18.2146 20.4761 17.9751 20.3638C17.73 20.2496 17.4645 20.1907 17.1959 20.1909Z" fill="#231F20" stroke="#231F20" stroke-width="0.7" stroke-miterlimit="10"/>
<path d="M19.8755 17.5381H14.5924V14.7124C14.5916 14.4872 14.6269 14.2635 14.697 14.0504C14.7633 13.8663 14.8652 13.6981 14.9963 13.5564C15.1293 13.4135 15.2917 13.3037 15.4714 13.2353C15.8803 13.0854 16.3262 13.0854 16.7351 13.2353C16.9142 13.3072 17.0762 13.4184 17.2102 13.5614C17.3462 13.7 17.4502 13.8689 17.5143 14.0554C17.5886 14.2657 17.6256 14.4883 17.6235 14.7124V15.7004C17.6236 15.8792 17.6379 16.0576 17.6663 16.2339C17.6977 16.4063 17.7537 16.5729 17.8326 16.728H19.866L19.8755 17.5381ZM16.8539 14.7173C16.87 14.6097 16.8619 14.4997 16.8304 14.3958C16.7988 14.2919 16.7445 14.1971 16.6718 14.1186C16.5992 14.0402 16.51 13.9803 16.4114 13.9436C16.3127 13.9069 16.2073 13.8944 16.1032 13.9072C16.0001 13.8952 15.8956 13.9077 15.7977 13.9436C15.6998 13.9795 15.611 14.038 15.5379 14.1146C15.4166 14.2892 15.3578 14.5024 15.3716 14.7173V16.7329H17.0677C16.9776 16.5818 16.9163 16.4141 16.8871 16.2389C16.8642 16.0621 16.8531 15.8838 16.8539 15.7054V14.7173Z" fill="#231F20" stroke="#231F20" stroke-width="0.7" stroke-miterlimit="10"/>
<path d="M15.3716 8.96211H19.8755V9.73771H15.3716V11.7138H14.5924V7.04041H15.3716V8.96211Z" fill="#231F20" stroke="#231F20" stroke-width="0.7" stroke-miterlimit="10"/>
<path d="M14.5022 4.56539V3.68109L19.8755 1.03819V1.93729L19.1058 2.29299V3.96269C19.1029 4.18599 19.1188 4.40919 19.1533 4.62959C19.1808 4.79819 19.2238 4.96359 19.2816 5.12359C19.3249 5.24109 19.3824 5.35229 19.4527 5.45459C19.4984 5.52359 19.5585 5.58099 19.6284 5.62259L19.8755 5.76089V6.64029L15.153 4.26409L14.5022 4.56539ZM18.3029 2.65849L16.07 3.85899L18.5975 5.07419C18.4983 4.92479 18.4274 4.75719 18.3884 4.58019C18.3236 4.28049 18.2949 3.97349 18.3029 3.66629V2.65849Z" fill="#231F20" stroke="#231F20" stroke-width="0.7" stroke-miterlimit="10"/>
<path d="M1.75077 55.2903C1.49417 55.0235 1.27567 54.7568 1.04767 54.49C0.831068 54.2197 0.644568 53.9247 0.491768 53.6107C0.325468 53.2702 0.203969 52.9079 0.130669 52.5337C0.0394686 52.0723 -0.00363107 51.6019 0.00236893 51.1308C-0.0187311 50.4529 0.102868 49.7785 0.358768 49.1547C0.562268 48.6731 0.859968 48.2407 1.23287 47.8851C1.55397 47.5812 1.93267 47.3507 2.34467 47.2083C2.68887 47.0841 3.04937 47.0158 3.41357 47.0058C3.83857 46.99 4.26177 47.071 4.65357 47.2429C4.99887 47.4264 5.29207 47.7006 5.50397 48.0383C5.75987 47.5644 6.11957 47.1599 6.55397 46.8576C7.03677 46.558 7.59337 46.4121 8.15507 46.4376C8.59757 46.4368 9.03627 46.524 9.44727 46.6945C9.87607 46.8708 10.2587 47.1502 10.5638 47.5097C10.9167 47.9322 11.1804 48.427 11.3382 48.9621C11.6666 50.1172 11.7172 51.3386 11.4854 52.5189C11.3901 52.9893 11.2566 53.4503 11.0864 53.8972C10.9185 54.3364 10.7084 54.7567 10.4593 55.152C10.2247 55.5264 9.94527 55.8684 9.62787 56.1696L8.27377 55.152C8.54837 54.9371 8.78887 54.6787 8.98647 54.3863C9.20277 54.0787 9.38597 53.7474 9.53277 53.3983C9.68577 53.0402 9.80047 52.6659 9.87487 52.2818C9.95307 51.9068 9.99287 51.5243 9.99367 51.1406C10.0034 50.6612 9.95057 50.1826 9.83687 49.7179C9.75907 49.3849 9.62207 49.0699 9.43307 48.7891C9.28307 48.5723 9.07947 48.4016 8.84387 48.2951C8.61657 48.1903 8.37047 48.1365 8.12177 48.1371C7.84277 48.1256 7.56617 48.1957 7.32367 48.3396C7.12627 48.4709 6.96307 48.6507 6.84857 48.8632C6.72527 49.0903 6.64017 49.3376 6.59677 49.5944C6.54767 49.8665 6.52227 50.1426 6.52067 50.4194V52.3016H4.89587V50.3947C4.91777 49.9441 4.78277 49.5004 4.51577 49.1448C4.36887 48.983 4.18887 48.8577 3.98897 48.7782C3.78907 48.6987 3.57457 48.667 3.36137 48.6854C3.08107 48.677 2.80537 48.7599 2.57267 48.9225C2.35407 49.0815 2.17237 49.289 2.04057 49.5302C1.89897 49.779 1.79477 50.0489 1.73177 50.3305C1.67257 50.5929 1.64077 50.8612 1.63677 51.1308C1.63057 51.4626 1.66087 51.7941 1.72697 52.1188C1.78087 52.3907 1.86707 52.6545 1.98357 52.9042C2.09647 53.1453 2.23507 53.3723 2.39687 53.581C2.57767 53.8101 2.76947 54.0294 2.97177 54.2381L1.75077 55.2903Z" fill="#231F20"/>
<path d="M5.86492 30.6837C6.65072 30.6727 7.42922 30.8414 8.14542 31.1777C8.83322 31.4975 9.45332 31.9559 9.96982 32.5264C10.4891 33.1003 10.9 33.7706 11.1813 34.5024C11.7859 36.0447 11.7859 37.7718 11.1813 39.3141C10.5889 40.793 9.45841 41.9685 8.03611 42.5844C7.29821 42.9097 6.50492 43.0777 5.70342 43.0784C4.92562 43.086 4.15552 42.9174 3.44672 42.5844C2.76262 42.2609 2.14731 41.7991 1.63661 41.2259C0.572315 40.0412 -0.0132846 38.4765 0.000815392 36.8554C0.0150154 35.2343 0.627815 33.6809 1.71262 32.5165C2.24402 31.9549 2.87481 31.5053 3.57021 31.1926C4.29261 30.8584 5.07432 30.6851 5.86492 30.6837ZM5.76992 32.3634C5.19732 32.3592 4.63042 32.4821 4.10712 32.724C3.60972 32.9592 3.16232 33.2951 2.79112 33.712C2.41922 34.1291 2.12882 34.6173 1.93592 35.1496C1.72922 35.699 1.62282 36.2837 1.62232 36.8737C1.61812 37.4845 1.72281 38.0909 1.93121 38.662C2.12711 39.1975 2.42561 39.686 2.80871 40.0978C3.19171 40.5097 3.65122 40.8364 4.15932 41.0579C4.69952 41.2922 5.27972 41.4098 5.86492 41.4037C6.43402 41.4085 6.99712 41.282 7.51352 41.0332C8.00922 40.7998 8.45382 40.4636 8.82002 40.0452C9.18762 39.6201 9.47892 39.1299 9.67992 38.5978C10.0976 37.486 10.0976 36.2515 9.67992 35.1397C9.47212 34.608 9.16712 34.1232 8.78202 33.712C8.40102 33.298 7.94802 32.9628 7.44702 32.724C6.91892 32.4814 6.34722 32.3584 5.76992 32.3634Z" fill="#231F20"/>
<path d="M11.376 24.8642V26.5439H0.329996V24.8642H4.8577C4.7523 24.635 4.6756 24.3926 4.6296 24.143C4.5863 23.8985 4.5641 23.6505 4.5631 23.402C4.5631 23.2389 4.5631 23.0018 4.6154 22.6856L4.7247 21.6729L4.8387 20.5861C4.8719 20.2255 4.8909 19.9192 4.8909 19.6623C4.8877 19.4042 4.8671 19.1467 4.8292 18.8916C4.7918 18.62 4.7165 18.3554 4.6059 18.1062H0.329996V16.4265H11.376V18.1012H6.2355C6.3461 18.3504 6.4213 18.615 6.4588 18.8867C6.4952 19.1402 6.5143 19.3961 6.5158 19.6524C6.5158 19.9093 6.5158 20.2156 6.4683 20.5762L6.3542 21.6581L6.245 22.6461C6.2117 22.9573 6.1927 23.1994 6.1927 23.3624C6.1936 23.6094 6.2159 23.8557 6.2592 24.0985C6.3035 24.3486 6.3802 24.5912 6.4873 24.8198L11.376 24.8642Z" fill="#231F20"/>
<path d="M0.135197 8.55699V6.70939L11.376 1.18139V3.06359L9.7607 3.81939V7.31209C9.7555 7.77879 9.7904 8.24499 9.8652 8.70519C9.9222 9.06059 10.0113 9.40959 10.1312 9.74759C10.22 9.99349 10.3398 10.2261 10.4876 10.4392C10.584 10.5837 10.7107 10.7036 10.8581 10.7899L11.376 11.0863V12.8993L1.4988 7.92959L0.135197 8.55699ZM8.1311 4.57029L3.4657 7.07989L8.7487 9.62409C8.5384 9.31899 8.3897 8.97279 8.3116 8.60639C8.1722 7.97989 8.1099 7.33739 8.1263 6.69459L8.1311 4.57029Z" fill="#231F20"/>
</g>
<defs>
<clipPath id="clip0_45_18">
<rect width="21" height="57" fill="white" transform="matrix(-1 0 0 -1 21 57)"/>
</clipPath>
</defs>
</svg>
