<svg width="538" height="300" viewBox="0 0 538 300" fill="none" xmlns="http://www.w3.org/2000/svg">
<g clip-path="url(#clip0_3_19)">
<path d="M538.226 0.0086878L-0.919067 0.00976562L-0.924672 300.247L538.22 300.246L538.226 0.0086878Z" fill="#1C1D21"/>
<mask id="mask0_3_19" style="mask-type:alpha" maskUnits="userSpaceOnUse" x="-1" y="0" width="540" height="301">
<path d="M538.226 0.0086878L-0.919067 0.00976562L-0.924672 300.247L538.22 300.246L538.226 0.0086878Z" fill="#1C1D21"/>
</mask>
<g mask="url(#mask0_3_19)">
<path d="M284.091 114.756L215.414 114.756L215.413 183.433L284.09 183.433L284.091 114.756Z" fill="#1C1D21"/>
<path opacity="0.7" d="M225.146 167.358L231.958 166.511V133.482L225.025 133.604V129.88L237.922 127.095L237.921 166.511L244.703 167.358V171.173H225.146V167.358ZM249.97 171.173V167.086L264.411 151.041C266.994 148.155 268.74 145.864 269.648 144.169C270.577 142.473 271.041 140.738 271.041 138.962C271.041 136.762 270.395 134.915 269.103 133.421C267.812 131.908 266.106 131.151 263.987 131.151C260.94 131.151 258.7 131.928 257.267 133.482C255.834 135.036 255.117 137.236 255.117 140.082H249.395L249.335 139.9C249.234 136.106 250.485 132.917 253.089 130.334C255.713 127.75 259.345 126.459 263.987 126.459C267.963 126.459 271.122 127.619 273.463 129.94C275.824 132.241 277.005 135.177 277.005 138.75C277.005 141.151 276.288 143.553 274.855 145.955C273.443 148.356 271.444 150.95 268.861 153.735L257.266 166.359L257.327 166.51H272.978L273.463 161.455H278.518V171.172L249.97 171.173Z" fill="#F3F3F3"/>
<path d="M169.378 132.851C168.528 131.397 167.939 129.807 167.638 128.151C167.475 127.661 167.244 127.197 166.951 126.772L167.03 126.104C167.113 126.031 167.168 125.931 167.185 125.822C167.202 125.713 167.181 125.601 167.125 125.505L167.021 125.072C167.279 123.422 167.337 121.748 167.195 120.085C167.128 119.507 167.151 118.922 167.264 118.35C167.559 117.296 167.634 116.193 167.484 115.108C167.335 114.024 166.964 112.981 166.395 112.045C166.47 111.884 166.494 111.703 166.463 111.528C166.432 111.353 166.347 111.191 166.221 111.065C166.021 110.956 165.858 110.791 165.75 110.591C165.642 110.391 165.594 110.164 165.612 109.938C165.636 109.445 165.499 108.958 165.221 108.55C164.838 108.117 164.308 107.744 164.473 107.033C164.577 106.009 163.882 105.298 163.421 104.517C162.96 103.737 162.029 102.939 161.89 101.838C161.932 101.658 161.936 101.473 161.901 101.292C161.867 101.111 161.795 100.94 161.69 100.788C161.105 99.7657 160.61 98.6957 160.212 97.5877C159.83 96.5447 159.238 95.5917 158.472 94.7867C158.147 94.4827 157.856 94.1457 157.603 93.7807C156.559 92.0457 154.455 91.1177 153.611 89.1577C153.611 89.0967 153.507 89.0627 153.446 89.0187C150.889 87.4407 148.671 85.3507 145.784 84.2837C144.816 83.9077 143.88 83.4557 142.984 82.9307C142.473 82.6347 141.923 82.4127 141.349 82.2717C140.201 82.0037 139.081 81.6327 138.001 81.1617C137.223 80.7327 136.358 80.4837 135.47 80.4327C135.247 80.4367 135.026 80.3927 134.821 80.3027C134.617 80.2127 134.435 80.0797 134.288 79.9127C133.966 79.6047 133.571 79.3837 133.14 79.2707C130.446 78.2627 127.612 77.6777 124.739 77.5367C123.495 77.5367 122.243 77.1807 121.008 77.5367C120.675 77.4137 120.327 77.3357 119.973 77.3027C118.399 77.3717 116.825 77.4927 115.251 77.6227C114.972 77.6797 114.7 77.7697 114.442 77.8917C114.291 77.8097 114.118 77.7737 113.946 77.7887C113.774 77.8047 113.611 77.8707 113.477 77.9787C113.339 78.0207 113.205 78.0757 113.077 78.1437C110.155 78.2567 107.485 79.3317 104.868 80.4847C102.749 81.3297 100.762 82.4687 98.9631 83.8677C97.6671 84.9427 96.3021 85.9487 95.0671 87.0937C92.7011 89.4217 90.5431 91.9487 88.6141 94.6477C87.7691 95.4717 87.1831 96.5237 86.9271 97.6747C86.8221 97.7607 86.7271 97.8657 86.6311 97.9607C86.5721 98.1587 86.4991 98.3527 86.4141 98.5417C86.3041 98.6217 86.202 98.7117 86.109 98.8107C86.029 98.9927 85.9651 99.1807 85.9181 99.3747C85.7561 99.4507 85.6211 99.5747 85.5321 99.7297C85.4441 99.8847 85.4051 100.064 85.4221 100.242C85.3441 100.433 85.2831 100.632 85.2141 100.823C85.1441 101.014 84.8831 101.395 84.7271 101.69C84.5701 101.985 84.5961 102.08 84.5351 102.271L84.04 103.139L83.831 103.711C83.7161 103.795 83.6111 103.891 83.5181 103.997C83.4351 104.058 83.3741 104.144 83.3441 104.243C83.3141 104.341 83.3171 104.447 83.3531 104.543C83.2921 104.743 83.2311 104.934 83.1871 105.133C83.1421 105.343 83.0661 105.544 82.9611 105.732C82.8551 105.81 82.7591 105.9 82.6741 106.001C82.5991 106.183 82.5411 106.371 82.5001 106.564C82.4491 106.77 82.3791 106.97 82.2921 107.163C82.1821 107.246 82.0801 107.339 81.9871 107.44C81.9061 107.505 81.8461 107.592 81.8151 107.691C81.7841 107.79 81.7841 107.896 81.8131 107.995C81.7441 108.195 81.7001 108.403 81.6311 108.594C81.2631 108.995 81.0431 109.508 81.0051 110.051C80.7781 110.849 80.2041 111.551 80.2741 112.436C80.0251 112.8 79.9061 113.236 79.9351 113.676C79.6491 114.502 79.4251 115.349 79.2651 116.208C79.0481 118.082 78.6561 119.964 79.1701 121.854C79.0951 121.931 79.0481 122.03 79.0341 122.136C79.0201 122.242 79.0401 122.35 79.0911 122.444C79.1031 122.576 79.1441 122.703 79.2131 122.817C79.2301 123.016 79.2301 123.216 79.2131 123.415C79.3261 123.675 79.4301 123.927 79.5351 124.196C79.4761 124.362 79.4611 124.54 79.4921 124.713C79.5221 124.886 79.5971 125.049 79.7091 125.185C79.7321 125.323 79.7821 125.456 79.8571 125.575C79.7941 125.735 79.776 125.909 79.805 126.079C79.834 126.249 79.9091 126.407 80.0221 126.537C79.2961 129.33 79.2961 132.261 80.0221 135.054C80.4471 137.292 81.067 139.489 81.874 141.619C82.884 144.285 84.0451 146.891 85.3531 149.425C86.5701 151.697 87.9621 153.874 89.2661 156.103C91.3361 159.507 93.9341 162.563 96.9621 165.157C99.2201 167.175 101.696 168.935 104.346 170.404C107.753 172.347 111.472 173.685 115.338 174.359C119.21 174.931 123.113 175.27 127.026 175.373C132.487 175.642 137.27 173.639 141.923 171.124C142.056 171.058 142.179 170.974 142.288 170.872C143.412 169.916 144.627 169.07 145.915 168.349C148.564 166.736 150.918 164.683 152.872 162.278C153.907 160.925 155.063 159.676 156.203 158.453C156.985 157.586 157.846 156.788 158.594 155.851C160.116 153.961 161.742 152.157 163.29 150.283C165 148.342 166.312 146.085 167.151 143.64C167.83 141.472 168.725 139.364 169.595 137.257C169.899 136.555 170.038 135.793 170 135.029C169.963 134.265 169.75 133.52 169.378 132.851Z" fill="white"/>
<path d="M78.97 222.059H77.561V212.415H78.97V216.395H79.622C79.928 216.398 80.233 216.375 80.535 216.326C80.841 216.278 81.136 216.175 81.405 216.022L83.857 212.415H85.596L82.422 216.959L84.162 219.561C84.289 219.769 84.441 219.961 84.614 220.133C84.739 220.26 84.879 220.371 85.031 220.463C85.146 220.537 85.272 220.589 85.405 220.619H85.753H86.057V222.05H85.553C85.339 222.064 85.124 222.064 84.909 222.05C84.699 222.023 84.496 221.959 84.309 221.859C84.083 221.743 83.877 221.591 83.701 221.408C83.448 221.147 83.229 220.856 83.048 220.541L81.196 217.583C80.974 217.677 80.74 217.741 80.5 217.774C80.267 217.809 80.032 217.826 79.796 217.826H78.978L78.97 222.059Z" fill="white" stroke="white" stroke-width="0.7" stroke-miterlimit="10"/>
<path d="M98.798 217.253C98.805 217.938 98.66 218.617 98.371 219.239C98.101 219.838 97.717 220.38 97.241 220.835C96.767 221.278 96.22 221.637 95.623 221.893C94.323 222.413 92.871 222.413 91.571 221.893C90.943 221.652 90.37 221.289 89.884 220.826C89.401 220.342 89.019 219.766 88.761 219.134C88.503 218.501 88.373 217.823 88.379 217.14C88.373 216.461 88.515 215.79 88.797 215.171C89.068 214.575 89.455 214.039 89.936 213.593C90.424 213.147 90.99 212.795 91.606 212.552C92.237 212.303 92.91 212.177 93.588 212.179C94.283 212.174 94.972 212.306 95.615 212.57C96.231 212.82 96.792 213.188 97.267 213.654C97.741 214.118 98.122 214.669 98.389 215.276C98.657 215.9 98.796 216.573 98.798 217.253ZM97.38 217.166C97.388 216.667 97.284 216.172 97.076 215.718C96.866 215.279 96.57 214.887 96.206 214.564C95.852 214.24 95.439 213.986 94.989 213.819C94.522 213.642 94.026 213.554 93.528 213.558C93.014 213.554 92.503 213.645 92.023 213.827C91.573 213.999 91.162 214.258 90.814 214.59C90.473 214.928 90.201 215.329 90.014 215.77C89.811 216.241 89.71 216.749 89.719 217.262C89.715 217.756 89.822 218.245 90.032 218.693C90.241 219.129 90.536 219.519 90.901 219.837C91.255 220.162 91.668 220.416 92.119 220.583C92.58 220.768 93.073 220.863 93.571 220.861C94.075 220.863 94.575 220.766 95.041 220.575C95.487 220.393 95.894 220.128 96.241 219.794C96.589 219.462 96.867 219.064 97.058 218.623C97.267 218.166 97.371 217.668 97.363 217.166H97.38Z" fill="white" stroke="white" stroke-width="0.7" stroke-miterlimit="10"/>
<path d="M106.798 219.37L103.52 215.433V222.059H102.137V213.776L101.007 212.415H102.833L106.79 217.15L110.79 212.415H112.616L111.486 213.776V222.059H110.103V215.433L106.798 219.37Z" fill="white" stroke="white" stroke-width="0.7" stroke-miterlimit="10"/>
<path d="M124.2 220.125C123.827 220.121 123.455 220.147 123.087 220.203C122.765 220.262 122.454 220.371 122.165 220.524V222.059H120.782V220.524C120.478 220.337 120.137 220.219 119.782 220.177C119.438 220.141 119.093 220.124 118.747 220.125C118.225 220.126 117.707 220.023 117.225 219.821C116.762 219.627 116.338 219.351 115.973 219.006C115.607 218.664 115.312 218.255 115.103 217.8C114.888 217.336 114.778 216.829 114.782 216.317C114.777 215.802 114.886 215.293 115.103 214.826C115.309 214.367 115.605 213.954 115.973 213.611C116.338 213.266 116.762 212.99 117.225 212.796C117.707 212.594 118.225 212.491 118.747 212.493H120.782V212.033H122.165V212.493H124.2C124.711 212.49 125.218 212.593 125.687 212.796C126.145 212.986 126.561 213.263 126.913 213.611C127.623 214.334 128.023 215.305 128.026 216.317C128.028 216.827 127.924 217.332 127.722 217.8C127.533 218.254 127.255 218.666 126.906 219.013C126.557 219.359 126.143 219.634 125.687 219.821C125.218 220.024 124.711 220.127 124.2 220.125ZM118.747 218.702C119.122 218.697 119.497 218.717 119.869 218.763C120.192 218.811 120.503 218.924 120.782 219.093V213.889H118.747C118.424 213.888 118.105 213.953 117.808 214.08C117.521 214.198 117.261 214.372 117.043 214.591C116.824 214.812 116.647 215.071 116.521 215.355C116.397 215.651 116.335 215.97 116.338 216.291C116.338 216.61 116.4 216.925 116.521 217.219C116.642 217.506 116.82 217.765 117.043 217.982C117.264 218.197 117.523 218.367 117.808 218.485C118.102 218.625 118.422 218.699 118.747 218.702ZM124.2 218.702C124.523 218.707 124.843 218.642 125.139 218.511C125.423 218.391 125.682 218.221 125.904 218.008C126.125 217.789 126.302 217.53 126.426 217.245C126.547 216.951 126.61 216.636 126.609 216.317C126.612 215.996 126.55 215.677 126.426 215.381C126.297 215.098 126.121 214.84 125.904 214.617C125.685 214.4 125.425 214.226 125.139 214.106C124.842 213.979 124.523 213.914 124.2 213.915H122.165V219.119C122.461 218.937 122.794 218.825 123.139 218.789C123.49 218.738 123.845 218.709 124.2 218.702Z" fill="white" stroke="white" stroke-width="0.7" stroke-miterlimit="10"/>
<path d="M141.271 217.254C141.277 217.938 141.135 218.616 140.853 219.24C140.582 219.838 140.195 220.378 139.714 220.827C139.231 221.279 138.668 221.638 138.053 221.885C137.426 222.154 136.752 222.296 136.07 222.302C135.387 222.309 134.711 222.18 134.079 221.923C133.447 221.667 132.872 221.287 132.388 220.807C131.905 220.327 131.522 219.756 131.261 219.127C130.989 218.482 130.85 217.789 130.853 217.089C130.845 216.409 130.991 215.737 131.279 215.12C131.55 214.524 131.937 213.988 132.418 213.542C133.414 212.63 134.718 212.125 136.07 212.128C136.765 212.123 137.454 212.255 138.097 212.519C139.339 213.024 140.332 213.996 140.862 215.225C141.142 215.864 141.281 216.556 141.271 217.254ZM139.862 217.167C139.866 216.668 139.762 216.174 139.558 215.719C139.348 215.28 139.052 214.888 138.688 214.565C138.333 214.242 137.92 213.989 137.471 213.82C136.514 213.467 135.462 213.467 134.505 213.82C134.054 213.989 133.643 214.249 133.296 214.583C132.952 214.92 132.678 215.32 132.488 215.762C132.292 216.235 132.194 216.742 132.201 217.254C132.197 217.748 132.304 218.237 132.514 218.685C132.722 219.122 133.018 219.511 133.383 219.83C134.125 220.476 135.077 220.831 136.062 220.827C136.566 220.83 137.066 220.733 137.531 220.541C138.437 220.18 139.165 219.48 139.558 218.59C139.759 218.142 139.863 217.657 139.862 217.167Z" fill="white" stroke="white" stroke-width="0.7" stroke-miterlimit="10"/>
<path d="M144.532 222.059V212.415H149.541C149.938 212.413 150.331 212.477 150.706 212.605C151.031 212.726 151.327 212.912 151.576 213.152C151.828 213.395 152.021 213.691 152.141 214.019C152.405 214.765 152.405 215.58 152.141 216.326C152.015 216.651 151.822 216.946 151.576 217.193C151.329 217.438 151.033 217.627 150.706 217.748C150.333 217.883 149.938 217.951 149.541 217.948H147.802C147.487 217.948 147.173 217.974 146.863 218.026C146.559 218.084 146.267 218.187 145.993 218.329V222.041L144.532 222.059ZM149.498 216.543C149.687 216.572 149.881 216.557 150.064 216.5C150.247 216.442 150.413 216.343 150.552 216.21C150.69 216.078 150.795 215.915 150.86 215.735C150.924 215.555 150.946 215.362 150.924 215.172C150.945 214.984 150.923 214.793 150.86 214.615C150.796 214.436 150.694 214.274 150.559 214.14C150.251 213.919 149.876 213.812 149.498 213.837H145.949V216.933C146.215 216.768 146.511 216.656 146.819 216.603C147.13 216.561 147.444 216.541 147.758 216.543H149.498Z" fill="white" stroke="white" stroke-width="0.7" stroke-miterlimit="10"/>
<path d="M159.638 213.837V222.059H158.238V213.837H154.759V212.415H162.995V213.837H159.638Z" fill="white" stroke="white" stroke-width="0.7" stroke-miterlimit="10"/>
<path d="M167.369 212.25H168.925L173.578 222.059H171.995L171.36 220.654H168.421C168.028 220.648 167.635 220.677 167.247 220.74C166.95 220.789 166.659 220.867 166.377 220.975C166.169 221.049 165.972 221.154 165.795 221.286C165.671 221.369 165.567 221.48 165.49 221.608L165.247 222.059H163.716L167.899 213.438L167.369 212.25ZM170.726 219.188L168.612 215.112L166.482 219.726C166.743 219.542 167.039 219.412 167.351 219.344C167.879 219.226 168.42 219.174 168.96 219.188H170.726Z" fill="white" stroke="white" stroke-width="0.7" stroke-miterlimit="10"/>
<path d="M78.074 188.972C78.544 188.504 79.013 188.105 79.483 187.689C79.959 187.293 80.478 186.953 81.031 186.674C81.63 186.37 82.268 186.149 82.927 186.015C83.739 185.848 84.567 185.77 85.396 185.781C86.59 185.742 87.777 185.964 88.875 186.431C89.723 186.803 90.484 187.346 91.11 188.027C91.644 188.615 92.053 189.305 92.31 190.056C92.522 190.686 92.639 191.344 92.658 192.008C92.686 192.784 92.543 193.556 92.24 194.271C91.917 194.902 91.435 195.437 90.84 195.824C91.674 196.291 92.387 196.947 92.919 197.74C93.446 198.622 93.703 199.638 93.658 200.663C93.659 201.471 93.506 202.272 93.206 203.022C92.895 203.805 92.404 204.503 91.771 205.06C91.027 205.704 90.156 206.186 89.214 206.474C87.18 207.073 85.03 207.166 82.953 206.743C82.125 206.569 81.313 206.325 80.526 206.014C79.753 205.708 79.013 205.324 78.317 204.869C77.675 204.44 77.09 203.93 76.578 203.352L78.343 200.88C78.722 201.381 79.177 201.82 79.691 202.181C80.233 202.576 80.816 202.91 81.431 203.178C82.061 203.457 82.72 203.667 83.396 203.803C84.056 203.945 84.73 204.018 85.405 204.019C86.249 204.037 87.091 203.941 87.91 203.733C88.498 203.589 89.055 203.34 89.553 202.996C89.935 202.722 90.235 202.351 90.423 201.921C90.607 201.506 90.702 201.056 90.701 200.602C90.721 200.093 90.598 199.588 90.345 199.145C90.113 198.785 89.797 198.487 89.423 198.278C89.023 198.053 88.588 197.898 88.136 197.818C87.657 197.729 87.171 197.682 86.683 197.68H83.335V194.714H86.692C87.485 194.753 88.266 194.507 88.892 194.02C89.177 193.752 89.398 193.423 89.538 193.058C89.678 192.693 89.734 192.302 89.701 191.912C89.716 191.401 89.57 190.897 89.284 190.473C89.004 190.074 88.638 189.742 88.214 189.501C87.776 189.243 87.301 189.053 86.805 188.938C86.343 188.829 85.871 188.77 85.396 188.764C84.827 188.756 84.258 188.811 83.701 188.929C83.222 189.027 82.757 189.184 82.318 189.397C81.893 189.603 81.494 189.856 81.126 190.152C80.723 190.479 80.337 190.826 79.97 191.192L78.074 188.972Z" fill="white"/>
<path d="M121.391 196.483C121.41 197.917 121.113 199.338 120.521 200.646C119.958 201.901 119.151 203.033 118.147 203.976C117.137 204.924 115.957 205.674 114.669 206.188C111.954 207.291 108.913 207.291 106.198 206.188C103.595 205.109 101.527 203.044 100.45 200.446C99.873 199.1 99.577 197.652 99.58 196.188C99.567 194.768 99.864 193.362 100.45 192.068C101.019 190.82 101.832 189.696 102.841 188.764C104.121 187.548 105.676 186.658 107.374 186.168C109.072 185.678 110.864 185.603 112.597 185.949C114.33 186.295 115.954 187.052 117.332 188.157C118.71 189.261 119.801 190.68 120.513 192.294C121.091 193.615 121.39 195.041 121.391 196.483ZM118.434 196.309C118.446 195.264 118.229 194.228 117.799 193.274C117.388 192.364 116.796 191.547 116.06 190.872C115.326 190.193 114.466 189.663 113.529 189.311C112.553 188.936 111.514 188.748 110.468 188.755C109.393 188.748 108.325 188.939 107.32 189.319C106.378 189.682 105.518 190.227 104.789 190.924C104.07 191.624 103.499 192.462 103.111 193.387C102.692 194.371 102.481 195.431 102.494 196.5C102.485 197.539 102.708 198.567 103.146 199.51C103.56 200.413 104.151 201.224 104.885 201.895C105.633 202.566 106.496 203.097 107.433 203.464C108.4 203.841 109.43 204.032 110.468 204.028C111.523 204.032 112.568 203.832 113.547 203.438C115.428 202.671 116.941 201.211 117.773 199.362C118.212 198.404 118.438 197.363 118.434 196.309Z" fill="white"/>
<path d="M131.635 206.542H128.67V186.378H131.626V194.643C132.03 194.452 132.457 194.312 132.896 194.227C133.326 194.148 133.763 194.107 134.201 194.106C134.488 194.106 134.905 194.106 135.462 194.201L137.253 194.4L139.158 194.609C139.792 194.669 140.332 194.704 140.784 194.704C141.238 194.698 141.691 194.66 142.14 194.591C142.619 194.523 143.085 194.386 143.523 194.184V186.378H146.48V206.542H143.523V197.158C143.087 197.359 142.624 197.496 142.149 197.566C141.7 197.632 141.247 197.667 140.793 197.67C140.34 197.67 139.801 197.67 139.166 197.583L137.262 197.375L135.479 197.176C134.931 197.115 134.505 197.08 134.218 197.08C133.783 197.082 133.35 197.123 132.922 197.202C132.482 197.282 132.055 197.422 131.653 197.618L131.635 206.542Z" fill="white"/>
<path d="M160.342 186.023H163.595L173.326 206.542H170.013L168.691 203.593H162.534C161.712 203.584 160.891 203.648 160.081 203.784C159.458 203.887 158.847 204.05 158.255 204.27C157.819 204.43 157.406 204.649 157.029 204.92C156.774 205.097 156.563 205.328 156.411 205.597L155.89 206.542H152.698L161.447 188.512L160.342 186.023ZM167.36 200.619L162.942 192.102L158.472 201.746C158.992 201.366 159.584 201.094 160.212 200.948C161.315 200.694 162.446 200.58 163.577 200.61L167.36 200.619Z" fill="white"/>
<path d="M155.237 127.265C155.042 126.805 154.745 126.394 154.368 126.064C153.992 125.733 153.546 125.492 153.063 125.357C152.324 125.193 151.553 125.231 150.834 125.467C150.114 125.704 149.472 126.13 148.976 126.701C147.854 127.846 147.602 129.39 147.419 130.907C147.176 132.98 147.115 135.07 147.054 137.161C147.053 138.054 146.875 138.938 146.532 139.762C146.315 140.239 145.967 140.3 145.489 140.231C145.01 140.161 144.949 139.788 144.906 139.424C144.899 139.198 144.913 138.971 144.949 138.748C145.228 136.553 145.819 134.411 146.21 132.252C146.582 130.481 146.656 128.661 146.428 126.866C146.302 125.905 145.833 125.021 145.106 124.377C144.673 124.02 144.173 123.754 143.635 123.593C143.098 123.432 142.533 123.38 141.975 123.44C140.47 123.571 138.972 123.779 137.488 124.065C135.253 124.429 133.009 124.759 130.774 125.088C128.774 125.383 126.783 125.721 124.774 125.955C122.33 126.233 119.886 126.493 117.425 126.675C113.294 126.97 109.172 127.161 105.076 126.294C104.023 126.105 103.029 125.674 102.172 125.036C101.406 124.412 100.711 123.258 101.476 122.243C101.795 121.828 102.202 121.487 102.667 121.246C104.029 120.628 105.522 120.351 107.016 120.44C108.74 120.488 110.458 120.668 112.155 120.977C114.521 121.324 116.889 121.636 119.26 121.914C122.313 122.278 125.391 122.469 128.461 122.634C132.809 122.868 137.114 122.859 141.445 122.825C143.229 122.832 144.999 122.505 146.663 121.862C147.472 121.591 148.196 121.114 148.764 120.478C149.331 119.843 149.722 119.07 149.898 118.237C150.353 116.203 150.251 114.085 149.602 112.105C149.424 111.532 149.126 111.004 148.727 110.555C148.328 110.106 147.838 109.748 147.289 109.503C146.333 109.076 145.301 108.843 144.254 108.818C144.897 108.693 145.558 108.693 146.202 108.818C146.545 108.884 146.898 108.868 147.234 108.771C147.569 108.675 147.877 108.501 148.132 108.263C148.467 108.005 148.776 107.714 149.054 107.396C149.343 107.133 149.605 106.842 149.837 106.529C149.919 106.418 149.995 106.302 150.063 106.182C150.065 106.093 150.044 106.005 150.001 105.928C149.958 105.85 149.895 105.785 149.819 105.739C149.797 105.725 149.771 105.716 149.744 105.713C149.717 105.71 149.69 105.713 149.665 105.722C149.64 105.731 149.617 105.746 149.598 105.766C149.58 105.785 149.566 105.809 149.558 105.835C149.354 106.306 149.058 106.734 148.689 107.092C148.384 107.335 148.071 107.665 147.993 107.725C147.647 108.017 147.219 108.196 146.767 108.237L141.914 107.994C141.035 107.968 140.16 107.849 139.305 107.639C139.812 107.225 140.374 106.884 140.975 106.624C142.261 105.83 143.741 105.404 145.254 105.392C145.891 105.398 146.52 105.253 147.089 104.967C148.289 104.381 149.256 103.41 149.837 102.21C150.65 100.779 150.933 99.1094 150.637 97.4924C150.478 97.1064 150.359 96.7054 150.28 96.2954C150.48 96.3664 150.662 96.4814 150.812 96.6314C150.963 96.7814 151.078 96.9624 151.15 97.1624C151.439 97.7634 151.577 98.4254 151.553 99.0914C151.529 99.7584 151.343 100.408 151.011 100.987C150.44 101.822 149.921 102.691 149.454 103.588C149.15 104.248 149.219 104.508 149.854 104.872C149.932 104.924 149.993 104.941 149.993 105.045C149.993 105.488 150.167 105.34 150.324 105.106C150.48 104.872 150.515 104.898 150.602 104.785C150.802 104.508 150.689 104.334 150.385 104.256C150.234 104.246 150.083 104.246 149.932 104.256C150.14 103.689 150.433 103.157 150.802 102.678C151.672 101.368 152.489 100.076 152.202 98.3414C151.95 96.8934 151.454 95.9134 150.167 95.6014C149.816 95.5894 149.469 95.5184 149.141 95.3934C148.63 95.1184 148.049 95.0004 147.471 95.0554C146.468 95.0994 145.486 95.3594 144.593 95.8184C141.33 97.2854 137.985 98.5654 134.575 99.6514C133.389 100.039 132.152 100.252 130.905 100.284C130.539 100.284 130.392 100.223 130.574 99.7984C130.97 98.9404 131.24 98.0284 131.374 97.0934C131.492 96.5224 131.439 95.9304 131.221 95.3904C131.002 94.8504 130.629 94.3874 130.148 94.0574C129.631 93.7394 129.097 93.4504 128.548 93.1904C128.292 93.0954 128.068 92.9284 127.905 92.7104C127.741 92.4914 127.644 92.2304 127.626 91.9584C127.617 91.8264 127.579 91.6984 127.516 91.5814C127.453 91.4644 127.366 91.3624 127.261 91.2824C126.261 90.5154 125.043 90.0844 123.782 90.0504C122.102 89.9434 120.432 90.3844 119.025 91.3084C118.014 91.8574 117.144 92.6334 116.486 93.5764C115.828 94.5184 115.399 95.6004 115.234 96.7374C115.17 97.3494 115.211 97.9684 115.355 98.5674C115.406 98.8874 115.565 99.1804 115.805 99.3974C116.046 99.6154 116.353 99.7444 116.677 99.7644C114.938 100.232 114.312 100.197 113.129 99.7034C111.32 98.9404 109.651 97.9694 107.842 97.1014C106.45 96.4514 105.033 95.8704 103.589 95.3674C101.511 94.6044 99.2411 94.4474 97.2151 93.6324C96.8571 93.5004 96.4661 93.4894 96.1021 93.6004C95.7371 93.7114 95.4191 93.9394 95.1971 94.2484C94.8761 94.6894 94.6471 95.1894 94.5211 95.7194C94.3961 96.2494 94.377 96.7984 94.467 97.3354C94.611 98.9794 95.1801 100.556 96.1191 101.915C96.1601 101.957 96.19 102.009 96.208 102.065C96.227 102.121 96.2321 102.181 96.2231 102.239C96.2151 102.298 96.1931 102.353 96.1601 102.402C96.1271 102.451 96.0831 102.492 96.0321 102.522C95.9731 102.563 95.924 102.616 95.887 102.677C95.849 102.738 95.8251 102.806 95.8151 102.876C95.8051 102.947 95.8101 103.019 95.8301 103.088C95.8491 103.157 95.882 103.221 95.928 103.276C97.154 105.098 98.3891 106.91 99.6061 108.731C99.7021 108.879 99.789 109 99.971 108.974C100.154 108.948 100.224 108.775 100.285 108.601C100.408 108.216 100.454 107.81 100.42 107.406C100.386 107.003 100.272 106.61 100.084 106.251C99.4601 105.125 98.7011 104.08 97.8231 103.137C97.7191 103.007 97.5021 102.877 97.5891 102.713C97.6761 102.548 97.9281 102.634 98.1101 102.652C98.1791 102.639 98.2501 102.639 98.3191 102.652C99.3961 103.052 100.557 103.172 101.693 102.999C103.208 102.75 104.761 103.082 106.042 103.927C107.676 105.115 108.65 106.832 109.694 108.506C109.868 108.783 109.798 109.026 109.416 109.139C108.903 109.26 108.376 109.304 107.85 109.269C104.824 109.175 101.794 109.276 98.7801 109.573C97.7091 109.664 96.6911 110.075 95.8581 110.752C94.7101 111.784 94.5541 113.18 94.6231 114.611C94.8121 116.846 95.2441 119.053 95.9101 121.194C96.3621 122.807 96.8841 124.403 97.3711 126.007C98.2411 128.878 99.2061 131.714 100.145 134.567C100.624 136.024 101.102 137.481 101.554 138.904C101.648 139.208 101.624 139.536 101.485 139.822C101.346 140.109 101.104 140.332 100.806 140.447C100.52 140.567 100.2 140.581 99.9051 140.485C99.6101 140.39 99.3591 140.192 99.1971 139.927C99.0561 139.686 98.9281 139.437 98.8151 139.181C97.9621 137.61 97.744 135.773 98.206 134.047C98.468 133.099 98.562 132.113 98.484 131.133C98.479 130.422 98.327 129.719 98.038 129.069C97.749 128.419 97.3301 127.834 96.8061 127.352C96.4861 127.06 96.1041 126.843 95.6881 126.717C95.2731 126.59 94.8351 126.559 94.4061 126.623C94.3991 126.59 94.3851 126.558 94.3651 126.53C94.3451 126.502 94.32 126.478 94.29 126.46C94.261 126.443 94.2281 126.431 94.1941 126.426C94.1601 126.421 94.1261 126.423 94.0931 126.432C92.8901 126.738 91.7881 127.349 90.8931 128.206C89.9981 129.064 89.3421 130.138 88.9881 131.324C88.9271 131.506 88.8831 131.697 88.8401 131.879C88.7651 132.031 88.7071 132.191 88.6661 132.356C88.3811 133.696 88.3251 135.074 88.5011 136.432C88.8051 138.934 89.7351 141.32 91.2051 143.37C93.1191 146.093 95.9021 147.481 98.9801 148.348C101.528 149.038 104.169 149.331 106.807 149.216C109.199 149.136 111.582 148.887 113.938 148.47C115.825 148.149 117.695 147.793 119.547 147.299C120.817 146.969 122.078 146.605 123.321 146.197C125.174 145.62 126.991 144.936 128.765 144.151C130.252 143.466 131.644 142.581 133.114 141.93C134.328 141.319 135.689 141.054 137.044 141.167C138.558 141.367 138.923 142.035 138.436 143.249C138.002 144.25 137.242 145.075 136.279 145.59C133.352 147.131 130.195 148.191 126.93 148.73C124.052 149.285 121.13 149.554 118.234 149.892C116.386 150.068 114.55 150.358 112.738 150.759C111.765 150.917 110.833 151.268 109.998 151.791C109.224 152.355 109.259 153.049 110.111 153.526C111.091 153.961 112.145 154.208 113.216 154.254C115.77 154.546 118.344 154.63 120.912 154.506C121.182 154.506 121.286 154.584 121.33 154.835C121.335 154.864 121.335 154.893 121.33 154.922H121.426C121.486 155.226 121.539 155.538 121.591 155.842L121.747 156.822C121.628 157.015 121.565 157.237 121.565 157.463C121.565 158.877 121.565 160.291 121.565 161.704C121.565 162.138 121.565 162.572 121.626 163.023C121.637 163.083 121.634 163.146 121.617 163.205C121.599 163.264 121.568 163.318 121.526 163.363C121.483 163.408 121.431 163.442 121.373 163.463C121.314 163.483 121.252 163.49 121.191 163.482C121.008 163.482 120.817 163.482 120.634 163.482C118.544 163.821 116.501 164.404 114.547 165.217C113.061 165.8 111.609 166.466 110.198 167.211C109.149 167.712 108.165 168.338 107.268 169.076C107.033 169.284 106.781 169.518 106.929 169.831C107.076 170.143 107.424 170.108 107.729 170.099C108.23 170.025 108.705 169.828 109.111 169.527C111.035 168.549 113.058 167.782 115.147 167.237C117.152 166.636 119.211 166.226 121.295 166.015C122.3 165.881 123.321 165.94 124.304 166.188C124.495 166.224 124.674 166.306 124.825 166.427C124.977 166.548 125.096 166.704 125.174 166.882C125.519 167.922 125.775 168.99 125.939 170.073C125.939 170.073 125.939 170.177 125.939 170.195C125.722 169.57 125.53 168.946 125.287 168.339C125.151 167.854 124.91 167.404 124.582 167.021C124.037 166.598 123.36 166.379 122.669 166.405C121.834 166.373 120.997 166.429 120.173 166.57C117.218 167.038 114.32 167.817 111.529 168.894C110.808 169.161 110.117 169.504 109.468 169.917C108.99 170.247 108.981 170.412 109.398 170.785L109.459 170.863C109.638 171.08 109.769 171.331 109.845 171.601C109.921 171.872 109.94 172.155 109.901 172.433C109.862 172.711 109.765 172.977 109.617 173.216C109.469 173.455 109.273 173.661 109.042 173.82C108.973 173.89 108.887 173.941 108.793 173.968C108.698 173.996 108.598 173.998 108.503 173.976C109.711 172.935 109.694 171.947 108.99 171.079C108.845 170.878 108.659 170.71 108.444 170.586C108.229 170.462 107.99 170.386 107.743 170.362C107.495 170.338 107.246 170.368 107.011 170.448C106.776 170.528 106.561 170.658 106.381 170.828C106.105 171.012 105.88 171.263 105.728 171.557C105.575 171.851 105.501 172.179 105.511 172.51C105.519 172.718 105.569 172.922 105.659 173.109C105.636 173.104 105.612 173.104 105.589 173.109L105.902 173.516C105.494 172.961 105.963 173.577 106.12 173.733C106.276 173.889 106.389 173.959 106.494 174.046C106.848 174.17 107.182 174.345 107.485 174.566C107.751 174.6 108.02 174.6 108.285 174.566C108.318 174.563 108.35 174.553 108.377 174.534C108.405 174.516 108.427 174.491 108.442 174.462C108.568 174.444 108.69 174.409 108.807 174.358C108.964 174.31 109.113 174.24 109.251 174.15C109.792 173.793 110.172 173.239 110.307 172.606C110.442 171.973 110.322 171.313 109.972 170.767C109.877 170.602 109.581 170.49 109.703 170.273C109.824 170.056 110.033 170.039 110.207 169.926H110.303C111.237 169.48 112.202 169.1 113.19 168.79C114.121 168.469 115.06 168.174 115.999 167.923C117.461 167.53 118.949 167.24 120.452 167.055C121.335 166.922 122.232 166.902 123.121 166.995C123.468 167.017 123.8 167.145 124.071 167.363C124.342 167.58 124.538 167.876 124.635 168.209C124.73 168.486 124.861 168.738 124.956 169.015C125.13 169.527 125.295 170.039 125.443 170.559C125.487 170.724 125.591 170.958 125.287 171.045C125.06 171.116 124.858 171.25 124.704 171.431C124.55 171.612 124.45 171.833 124.417 172.068C124.247 172.699 124.247 173.363 124.417 173.993C124.489 174.413 124.713 174.791 125.047 175.057C125.38 175.322 125.8 175.456 126.226 175.433C126.839 175.379 127.444 175.251 128.026 175.052C128.312 174.974 128.563 174.805 128.741 174.569C128.919 174.334 129.013 174.046 129.009 173.751C129.026 173.138 128.923 172.528 128.704 171.955C128.357 170.958 127.965 169.969 127.609 168.972C127.367 168.406 127.266 167.79 127.313 167.177C127.325 167.009 127.393 166.85 127.506 166.725C127.62 166.601 127.773 166.519 127.939 166.492C128.361 166.413 128.789 166.37 129.218 166.362C131.039 166.411 132.847 166.685 134.601 167.177C135.819 167.486 137.014 167.883 138.175 168.365C138.872 168.639 139.535 168.994 140.149 169.423C140.262 169.51 140.453 169.596 140.262 169.796C139.934 170.112 139.72 170.528 139.653 170.977C139.585 171.427 139.668 171.887 139.888 172.285C139.993 172.531 140.149 172.751 140.347 172.932C140.544 173.112 140.778 173.248 141.033 173.33C141.288 173.412 141.558 173.439 141.824 173.408C142.09 173.378 142.346 173.29 142.575 173.152C142.973 172.912 143.27 172.536 143.412 172.095C143.554 171.654 143.532 171.176 143.349 170.75C142.978 170.011 142.547 169.304 142.062 168.634C141.96 168.493 141.822 168.383 141.662 168.313C140.589 167.777 139.457 167.369 138.288 167.099C136.262 166.535 134.235 165.963 132.2 165.555C131.191 165.343 130.162 165.23 129.131 165.217C128.629 165.22 128.133 165.308 127.661 165.477C127.159 165.64 126.741 165.993 126.497 166.46C126.254 166.927 126.203 167.471 126.356 167.975C126.623 169.085 126.987 170.171 127.443 171.218C127.559 171.542 127.658 171.872 127.739 172.207C127.766 172.287 127.762 172.373 127.728 172.45C127.695 172.527 127.633 172.589 127.557 172.623C127.443 172.675 127.304 172.753 127.2 172.623C127.013 172.453 126.862 172.246 126.756 172.016C126.562 171.401 126.413 170.772 126.313 170.134C126.149 169.108 125.929 168.092 125.652 167.09C125.58 166.793 125.43 166.52 125.217 166.299C125.005 166.078 124.738 165.917 124.443 165.832C124.012 165.696 123.565 165.614 123.113 165.59C122.08 165.566 121.047 165.63 120.025 165.78C118.526 165.998 117.042 166.308 115.582 166.708C114.529 166.986 113.494 167.307 112.468 167.671C111.161 168.087 109.9 168.633 108.703 169.302C108.39 169.541 108.01 169.677 107.616 169.692C107.537 169.692 107.442 169.692 107.398 169.631C107.355 169.57 107.485 169.51 107.511 169.44C107.537 169.371 107.598 169.371 107.642 169.328C108.826 168.434 110.11 167.68 111.468 167.081C113.644 166.007 115.915 165.136 118.251 164.48C119.142 164.226 120.052 164.049 120.973 163.95C121.843 163.872 122.043 163.716 122.026 162.823C122.026 162.632 122.026 162.433 122.026 162.233C121.913 160.794 121.956 159.345 121.947 157.897C121.946 157.701 121.972 157.505 122.026 157.316C122.324 157.566 122.697 157.712 123.087 157.732H123.174C123.284 157.794 123.405 157.836 123.53 157.854C124.332 157.988 125.143 158.058 125.956 158.062C126.513 158.062 126.739 158.27 126.748 158.834C126.756 159.397 126.748 160.152 126.696 160.811C126.651 161.342 126.636 161.874 126.652 162.407C126.634 162.554 126.646 162.704 126.686 162.848C126.727 162.991 126.796 163.124 126.889 163.241C126.982 163.357 127.098 163.454 127.229 163.525C127.36 163.596 127.504 163.641 127.652 163.656C127.791 163.664 127.931 163.664 128.07 163.656C129.24 163.702 130.404 163.85 131.548 164.098C133.463 164.571 135.35 165.15 137.201 165.832C138.357 166.24 139.514 166.639 140.679 167.003C141.502 167.234 142.287 167.581 143.01 168.035C143.436 168.33 143.428 168.452 143.01 168.746C142.749 168.937 142.758 169.033 143.054 169.189C143.18 169.247 143.302 169.313 143.419 169.388C143.652 169.561 143.833 169.796 143.939 170.065C144.045 170.335 144.073 170.63 144.019 170.915C144.009 171.406 143.865 171.886 143.603 172.303C143.341 172.72 142.971 173.058 142.532 173.282C142.453 173.328 142.385 173.39 142.331 173.463C142.278 173.536 142.239 173.619 142.219 173.707C142.424 173.656 142.634 173.621 142.845 173.603C142.149 173.664 142.454 173.603 142.845 173.603C142.988 173.531 143.125 173.447 143.254 173.352C143.822 172.838 144.204 172.152 144.341 171.4C144.475 170.985 144.479 170.539 144.351 170.122C144.224 169.705 143.971 169.337 143.628 169.067C143.558 169.015 143.541 168.955 143.628 168.842C143.723 168.696 143.758 168.519 143.726 168.347C143.693 168.176 143.596 168.024 143.454 167.923C143.259 167.76 143.046 167.62 142.819 167.506C141.892 167.068 140.933 166.703 139.949 166.414C137.853 165.728 135.801 164.931 133.688 164.315C132.251 163.869 130.774 163.564 129.278 163.404C128.709 163.407 128.14 163.349 127.583 163.231C127.47 163.207 127.368 163.148 127.291 163.062C127.214 162.976 127.167 162.868 127.156 162.754C127.091 162.25 127.091 161.74 127.156 161.236C127.222 160.405 127.239 159.571 127.209 158.738C127.2 158.522 127.128 158.312 127.002 158.137C126.875 157.961 126.699 157.826 126.496 157.75C126.548 157.75 126.6 157.689 126.591 157.619V156.691L126.704 155.295C126.713 155.252 126.713 155.208 126.704 155.165C126.626 154.298 126.8 154.246 127.835 154.298H128.104C131.263 154.532 134.44 154.263 137.514 153.5C140.401 152.779 143.137 151.551 145.593 149.875C147.668 148.366 149.619 146.696 151.428 144.879C154.312 142.248 156.162 138.678 156.646 134.81C156.975 132.21 156.483 129.573 155.237 127.265ZM107.876 173.993C107.876 174.037 107.937 174.072 107.955 174.106C107.972 174.141 107.955 174.228 107.955 174.271C107.438 174.194 106.938 174.029 106.476 173.785C106.4 173.667 106.316 173.554 106.224 173.447C106.022 173.247 105.89 172.986 105.849 172.704C105.808 172.423 105.861 172.135 105.998 171.886C106.168 171.547 106.444 171.273 106.785 171.105C107.126 170.938 107.512 170.886 107.885 170.958C108.101 171.037 108.296 171.164 108.456 171.329C108.615 171.495 108.734 171.694 108.804 171.913C108.873 172.132 108.892 172.363 108.858 172.59C108.824 172.817 108.738 173.033 108.607 173.222C108.433 173.534 108.059 173.673 107.876 173.993ZM125.913 170.585C126.061 171.149 126.174 171.661 126.322 172.146C126.449 172.521 126.693 172.846 127.017 173.074C127.417 173.369 128.13 172.944 128.174 172.415C128.18 172.159 128.133 171.905 128.035 171.669C127.983 171.546 127.965 171.411 127.983 171.279C127.757 171.088 127.748 170.785 127.643 170.542C127.298 169.752 127.022 168.933 126.817 168.096C126.513 166.76 127.113 165.963 128.487 165.772C129.223 165.672 129.969 165.672 130.705 165.772C132.646 166.068 134.564 166.499 136.444 167.064C137.87 167.446 139.297 167.819 140.679 168.339C140.982 168.41 141.266 168.548 141.509 168.741C141.753 168.935 141.951 169.179 142.088 169.458C142.297 169.952 142.784 170.325 142.958 170.845C143.106 171.162 143.144 171.518 143.067 171.859C142.99 172.199 142.801 172.505 142.532 172.727C142.364 172.845 142.173 172.927 141.971 172.967C141.77 173.006 141.562 173.003 141.362 172.957C141.162 172.912 140.973 172.824 140.809 172.701C140.645 172.577 140.509 172.421 140.41 172.242C140.2 171.927 140.1 171.552 140.123 171.175C140.147 170.797 140.293 170.438 140.54 170.151C140.561 170.124 140.585 170.097 140.61 170.073C140.732 169.935 141.001 169.917 140.966 169.657C140.932 169.397 140.732 169.302 140.566 169.163C139.737 168.544 138.816 168.058 137.836 167.723C136.815 167.325 135.769 166.994 134.705 166.734C132.912 166.212 131.059 165.921 129.191 165.867C128.742 165.877 128.293 165.926 127.852 166.015C127.532 166.106 127.257 166.313 127.08 166.595C126.903 166.876 126.838 167.214 126.896 167.541C127.059 168.506 127.333 169.449 127.713 170.351C127.809 170.628 128.017 170.88 127.991 171.218C128.236 171.662 128.407 172.142 128.496 172.641C128.548 172.783 128.583 172.932 128.6 173.083C128.731 174.124 128.435 174.523 127.374 174.739L126.504 174.904C126.323 174.946 126.135 174.949 125.953 174.913C125.77 174.878 125.597 174.805 125.445 174.698C125.292 174.592 125.164 174.455 125.068 174.296C124.972 174.138 124.91 173.961 124.887 173.777C124.748 173.236 124.748 172.669 124.887 172.129C125.008 171.652 125.243 171.34 125.678 171.357C125.895 171.357 125.956 171.236 125.956 171.045C125.956 170.854 125.913 170.811 125.913 170.594V170.585ZM139.358 106.711C139.181 106.816 139.012 106.935 138.853 107.066C138.627 107.274 138.418 107.509 138.531 107.838C138.644 108.168 138.923 108.237 139.227 108.298C140.453 108.538 141.7 108.648 142.949 108.627C143.057 108.625 143.162 108.662 143.245 108.731L135.244 108.992C135.734 107.931 136.548 107.052 137.57 106.482C138.592 105.912 139.769 105.679 140.932 105.817L139.358 106.711ZM142.784 104.915C142.129 105.051 141.461 105.118 140.792 105.115C139.562 105.02 138.331 105.293 137.256 105.898C136.181 106.504 135.311 107.414 134.757 108.515C134.531 108.896 134.34 109.044 133.888 108.792C133.62 108.655 133.318 108.595 133.018 108.619H131.009C129.957 108.619 129.687 108.402 129.365 107.448C129.365 107.352 129.313 107.274 129.409 107.222C130 106.849 130.426 106.164 131.226 106.182C131.825 106.146 132.414 106.009 132.966 105.774C136.012 104.811 139.18 104.283 142.375 104.204L144.428 104.109L144.48 104.23C143.957 104.554 143.384 104.788 142.784 104.924V104.915ZM138.497 98.9314C140.879 98.0644 143.219 97.0234 145.567 96.0354C146.183 95.7094 146.886 95.5884 147.576 95.6884L146.045 96.2344C144.054 96.9284 142.149 97.8564 140.201 98.6544C138.174 99.5214 136.069 100.195 133.914 100.666C133.352 100.845 132.755 100.884 132.174 100.779C134.338 100.379 136.457 99.7634 138.497 98.9404V98.9314ZM115.886 97.9954C115.77 96.9704 115.925 95.9344 116.337 94.9884C116.75 94.0434 117.404 93.2234 118.234 92.6094C119.664 91.3224 121.526 90.6174 123.452 90.6314C124.542 90.6244 125.613 90.9254 126.539 91.4994C126.639 91.5524 126.726 91.6274 126.792 91.7194C126.859 91.8104 126.903 91.9164 126.922 92.0284C126.968 92.4154 127.121 92.7824 127.364 93.0884C127.606 93.3944 127.929 93.6284 128.296 93.7624C129.056 94.0284 129.737 94.4784 130.279 95.0724C130.521 95.4814 130.666 95.9394 130.704 96.4134C130.742 96.8864 130.67 97.3624 130.496 97.8044C130.313 98.5324 130.044 99.2374 129.696 99.9034C129.426 100.432 129.496 100.588 130.087 100.822C129.501 100.845 128.914 100.778 128.348 100.622C127.693 100.499 127.048 100.328 126.417 100.111C126.245 100.038 126.064 99.9884 125.878 99.9634C126.243 100.102 126.548 100.241 126.548 100.319C126.235 100.319 126.296 100.77 126.035 100.744L126.487 100.857C127.628 101.169 128.79 101.396 129.965 101.533C131.598 101.669 133.241 101.528 134.827 101.117C137.787 100.337 140.669 99.2864 143.436 97.9774C144.975 97.2284 146.59 96.6464 148.254 96.2434C149.193 96.0614 149.672 96.3904 149.88 97.3874C150.128 98.6264 150.013 99.9104 149.551 101.086C149.088 102.262 148.297 103.281 147.271 104.022C146.66 104.472 145.908 104.694 145.149 104.647C145.48 104.334 146.019 104.222 145.819 103.779C145.619 103.337 145.21 103.432 144.854 103.441C142.093 103.447 139.338 103.687 136.618 104.161C135.033 104.44 133.476 104.861 131.966 105.418C131.539 105.583 131.096 105.418 130.609 105.609C130.32 105.672 130.05 105.8 129.818 105.982C128.708 106.948 127.385 107.637 125.956 107.994C125 108.324 124.026 108.61 123.052 108.913C122.834 108.983 122.652 109.096 122.669 109.338C122.687 109.581 122.93 109.677 123.13 109.685C125.052 109.772 126.878 109.521 128.348 108.124C128.757 107.743 128.8 107.751 128.974 108.263C129.252 109.052 129.939 109.13 130.635 109.234C131.331 109.338 131.931 109.234 132.583 109.234C132.809 109.197 133.04 109.25 133.227 109.382C129.273 110.195 125.205 110.292 121.217 109.668C121.947 108.289 120.591 108.064 119.973 107.352C120.218 107.325 120.466 107.342 120.704 107.404C121.848 107.646 123.013 107.782 124.182 107.812C124.356 107.834 124.531 107.834 124.704 107.812C125.069 107.717 125.495 107.691 125.574 107.17C125.602 106.952 125.559 106.73 125.451 106.538C125.343 106.345 125.176 106.193 124.974 106.104C124.282 105.793 123.532 105.636 122.773 105.644C121.582 105.557 120.382 105.522 119.182 105.47C118.849 105.465 118.52 105.391 118.217 105.254C118.086 105.193 117.886 105.15 117.938 104.933C117.99 104.716 118.156 104.707 118.312 104.69C118.75 104.652 119.191 104.667 119.625 104.733C120.912 104.915 122.234 105.132 123.487 105.271C124.569 105.438 125.677 105.303 126.687 104.881C126.831 104.839 126.958 104.751 127.048 104.63C127.137 104.51 127.185 104.363 127.183 104.213C127.183 103.857 126.913 103.684 126.591 103.562C125.319 103.209 123.994 103.083 122.678 103.19C121.513 103.21 120.349 103.129 119.199 102.947C118.975 102.894 118.763 102.8 118.573 102.669C118.99 102.392 119.499 102.29 119.991 102.383C120.958 102.572 121.944 102.653 122.93 102.626C123.423 102.603 123.909 102.494 124.365 102.305C124.695 102.166 125 101.941 124.922 101.524C124.843 101.108 124.53 101.039 124.156 101.039C122.873 100.988 121.593 100.872 120.321 100.692C120.321 100.692 120.321 100.614 120.321 100.605C121.052 100.197 121.06 100.093 120.399 99.5564C120.399 99.5564 120.304 99.5044 120.269 99.4694C120.234 99.4344 119.93 99.1484 120.017 98.9314C120.104 98.7144 120.365 98.8104 120.53 98.8444C121.262 99.0204 121.978 99.2584 122.669 99.5564C122.991 99.6684 124.408 100.128 125.278 100.423L125.13 100.336C125.224 100.197 125.355 100.088 125.51 100.021C125.664 99.9554 125.834 99.9354 126 99.9634C125.487 99.7724 124.852 99.5904 124.782 99.5644C123.53 99.1224 122.286 98.6974 121.025 98.2374C120.771 98.1664 120.507 98.1344 120.243 98.1424C119.486 98.1424 119.138 98.6364 119.417 99.3484C119.417 99.4524 119.608 99.5214 119.512 99.7204C119.451 99.7904 119.356 99.7204 119.278 99.6424C118.651 99.1824 117.879 98.9644 117.103 99.0274C116.164 99.0444 115.964 98.8714 115.86 98.0034L115.886 97.9954ZM99.6671 107.535C98.5181 106.064 97.4861 104.507 96.5801 102.877C97.7281 104.326 99.3631 105.479 99.6411 107.552L99.6671 107.535ZM155.942 135.383C155.49 138.231 154.211 140.884 152.263 143.015C150.644 144.787 148.901 146.442 147.045 147.967C144.304 150.228 141.106 151.876 137.67 152.797C134.833 153.528 131.9 153.82 128.974 153.665C128.287 153.665 127.6 153.613 126.913 153.665C126.226 153.717 126.148 153.899 126.113 154.48C126.113 154.714 126.113 154.948 126.113 155.174H126.061C126.031 155.413 126.031 155.655 126.061 155.894C126.068 156.475 126.117 157.054 126.209 157.628V157.671C126.136 157.662 126.063 157.662 125.991 157.671C125.375 157.677 124.759 157.639 124.148 157.559C123.952 157.548 123.757 157.525 123.565 157.489C123.566 157.458 123.557 157.427 123.54 157.401C123.523 157.375 123.498 157.354 123.469 157.342L123.304 157.264C123.343 157.235 123.383 157.209 123.426 157.186L122.878 157.03C122.642 156.918 122.398 156.826 122.147 156.752H122.06V156.648C121.991 156.171 121.965 155.616 121.852 155.113H121.956C121.954 154.85 121.922 154.588 121.86 154.332C121.756 153.847 121.53 153.699 120.991 153.734C118.41 153.905 115.82 153.841 113.251 153.543C112.408 153.474 111.574 153.318 110.764 153.075C110.494 152.988 110.111 152.901 110.068 152.615C110.025 152.329 110.381 152.216 110.633 152.086C111.535 151.665 112.493 151.373 113.477 151.219C114.973 150.915 116.486 150.707 118.008 150.508C120.304 150.196 122.617 150.031 124.913 149.641C126.652 149.337 128.391 149.033 130.131 148.582C132.114 148.073 134.04 147.364 135.879 146.466C137.253 145.838 138.359 144.744 139.001 143.379C139.239 142.965 139.309 142.475 139.198 142.011C139.086 141.547 138.801 141.143 138.401 140.881C137.974 140.629 137.495 140.477 137.001 140.439C135.312 140.352 133.633 140.733 132.148 141.54C130.409 142.407 128.783 143.396 126.974 144.081C125.035 144.827 123.078 145.53 121.078 146.111C118.617 146.814 116.117 147.37 113.59 147.776C111.407 148.152 109.203 148.389 106.989 148.487C103.967 148.658 100.938 148.282 98.0501 147.377C96.4091 146.925 94.8871 146.124 93.5881 145.027C89.8141 141.497 88.214 137.221 89.318 132.078L89.553 131.688C89.548 131.648 89.548 131.607 89.553 131.567C89.769 130.916 90.0611 130.293 90.4231 129.711C90.4231 129.633 90.5181 129.563 90.5621 129.494C90.3181 129.797 90.1011 130.092 89.8491 130.361C89.7971 130.422 89.649 130.361 89.579 130.257C89.51 130.153 89.5791 130.066 89.6571 129.997C89.8751 129.771 90.2581 129.633 89.9881 129.199C89.9361 129.112 90.1011 129.008 90.1971 129.017C90.4231 129.017 90.4661 129.251 90.5971 129.416C91.0261 128.66 91.6551 128.037 92.4141 127.612C93.0781 127.251 93.8361 127.1 94.5881 127.178C95.1351 127.197 95.6661 127.368 96.1211 127.671C96.5751 127.975 96.9361 128.399 97.1621 128.895L97.249 128.999C97.573 129.496 97.732 130.082 97.7021 130.673C97.84 131.856 97.751 133.054 97.441 134.203C97.254 134.901 97.184 135.625 97.232 136.345C97.394 137.736 97.8531 139.076 98.5801 140.274C98.8311 140.66 99.211 140.946 99.652 141.081C100.093 141.216 100.568 141.192 100.993 141.013C101.418 140.834 101.767 140.512 101.977 140.102C102.188 139.693 102.248 139.222 102.146 138.774C101.815 137.638 101.432 136.51 101.067 135.383C100.198 132.824 99.4061 130.266 98.5631 127.716C97.4031 124.406 96.4211 121.036 95.6231 117.621C95.2661 116.205 95.1371 114.741 95.2411 113.285C95.2691 112.615 95.5211 111.975 95.9551 111.464C96.3901 110.954 96.9831 110.602 97.6411 110.466C98.6061 110.205 99.5981 110.053 100.598 110.015C102.833 109.833 105.068 109.911 107.303 109.894C107.868 109.894 108.433 109.894 108.99 109.894C110.285 109.798 110.668 109.096 110.042 107.977C109.449 106.932 108.769 105.94 108.007 105.011C107.132 103.825 105.892 102.957 104.476 102.539C103.332 102.302 102.157 102.252 100.998 102.392C100.209 102.472 99.4131 102.389 98.6581 102.149C98.1931 101.937 97.6731 101.876 97.1711 101.975C97.0711 102.006 96.9621 101.999 96.8661 101.956C96.7701 101.913 96.6931 101.837 96.6491 101.741C96.1721 101.015 95.789 100.231 95.51 99.4084C95.069 98.2204 94.9311 96.9424 95.1101 95.6884C95.1191 95.4274 95.1931 95.1734 95.3251 94.9484C95.4581 94.7234 95.6441 94.5354 95.8671 94.4004C96.0911 94.2654 96.3451 94.1874 96.6061 94.1744C96.8671 94.1614 97.1271 94.2144 97.3631 94.3264C98.0391 94.6114 98.741 94.8324 99.458 94.9854C101.808 95.3784 104.091 96.0964 106.242 97.1194C108.224 98.0384 110.172 99.0094 112.138 99.9634C113.3 100.643 114.68 100.848 115.99 100.536C116.792 100.321 117.645 100.404 118.39 100.77C119.135 101.08 119.92 101.284 120.721 101.377C121.744 101.531 122.775 101.632 123.808 101.68C123.747 101.828 123.652 101.819 123.565 101.837C122.51 102.038 121.424 102.008 120.382 101.75C119.708 101.596 119.001 101.669 118.373 101.958C118.232 102.009 118.108 102.1 118.019 102.22C117.929 102.341 117.877 102.485 117.869 102.634C117.87 102.776 117.912 102.913 117.991 103.031C118.07 103.148 118.182 103.239 118.312 103.294C118.858 103.55 119.449 103.697 120.051 103.727C121.678 103.953 123.321 103.727 124.956 103.875C125.498 103.884 126.031 104.018 126.513 104.265C125.601 104.609 124.619 104.726 123.652 104.603C122.365 104.447 121.043 104.239 119.791 104.074C119.173 103.931 118.53 103.931 117.912 104.074C117.74 104.115 117.586 104.212 117.475 104.351C117.365 104.489 117.304 104.66 117.303 104.837C117.29 105.021 117.337 105.204 117.435 105.36C117.534 105.516 117.679 105.637 117.851 105.705C118.25 105.89 118.681 105.997 119.121 106.017C120.295 106.06 121.478 106.095 122.652 106.199C123.355 106.163 124.055 106.306 124.687 106.615C124.8 106.685 124.93 106.711 124.913 106.867C124.895 107.023 124.73 107.058 124.6 107.075C124.127 107.108 123.652 107.094 123.182 107.032C121.869 106.919 120.573 106.615 119.269 106.468C119.034 106.468 118.738 106.39 118.617 106.667C118.495 106.945 118.686 107.153 118.904 107.318C119.486 107.743 120.06 108.185 120.643 108.601C120.756 108.688 120.921 108.809 120.791 108.992C120.745 109.058 120.677 109.107 120.6 109.129C120.522 109.151 120.439 109.145 120.365 109.113C120.06 108.996 119.769 108.848 119.495 108.671C118.521 108.003 117.703 107.162 116.773 106.459C116.529 106.277 116.225 106.147 116.095 105.835C115.691 104.991 115.122 104.238 114.419 103.619C113.717 103.001 112.897 102.53 112.007 102.236C109.294 101.268 106.444 100.732 103.563 100.648C103.146 100.648 102.876 100.744 102.789 101.16C102.702 101.576 102.998 101.75 103.328 101.863C105.022 102.454 106.769 102.878 108.546 103.129C111.099 103.575 113.495 104.668 115.503 106.303C115.86 106.572 115.842 106.763 115.442 106.936C115.267 107.001 115.118 107.12 115.016 107.277C114.914 107.433 114.865 107.617 114.877 107.803C114.886 108.014 114.852 108.225 114.779 108.422C114.706 108.62 114.595 108.802 114.451 108.957C114.312 109.13 114.155 109.286 114.268 109.512C114.381 109.737 114.625 109.703 114.834 109.711C115.955 109.772 117.086 109.711 118.208 109.85C120.286 110.093 122.365 110.336 124.443 110.535C126.27 110.661 128.104 110.661 129.931 110.535C131.739 110.44 133.453 109.789 135.253 109.668C135.983 109.616 136.705 109.443 137.453 109.443C138.679 109.443 139.914 109.443 141.14 109.364C142.704 109.276 144.273 109.357 145.819 109.607C146.659 109.707 147.446 110.067 148.07 110.637C148.694 111.206 149.123 111.956 149.298 112.782C149.671 114.335 149.733 115.948 149.48 117.525C149.388 118.345 149.063 119.122 148.544 119.764C148.025 120.406 147.333 120.887 146.55 121.151C144.887 121.794 143.115 122.112 141.332 122.087C133.404 122.288 125.473 121.955 117.59 121.09C115.547 120.838 113.512 120.578 111.503 120.223C110.016 119.953 108.509 119.799 106.998 119.763C105.237 119.608 103.472 120.012 101.954 120.917C100.563 121.862 100.111 122.937 100.876 124.446C101.355 125.29 102.119 125.936 103.033 126.268C104.336 126.79 105.706 127.129 107.103 127.274C109.831 127.579 112.582 127.637 115.321 127.447C117.634 127.334 119.947 127.135 122.278 126.883C124.113 126.693 125.939 126.458 127.765 126.198C129.591 125.938 131.487 125.634 133.34 125.331C135.609 124.975 137.888 124.628 140.158 124.264C141.035 124.081 141.933 124.014 142.827 124.065C143.329 124.09 143.816 124.237 144.247 124.494C144.678 124.751 145.038 125.11 145.297 125.539C145.866 126.655 146.09 127.913 145.941 129.156C145.757 131.479 145.376 133.783 144.802 136.042C144.504 137.176 144.335 138.339 144.297 139.511C144.297 140.378 144.662 140.725 145.567 140.916C145.89 140.99 146.23 140.942 146.52 140.782C146.811 140.622 147.032 140.361 147.141 140.049C147.542 139.111 147.749 138.102 147.75 137.082C147.758 134.558 147.968 132.038 148.376 129.546C148.464 128.778 148.761 128.05 149.235 127.438C149.709 126.827 150.341 126.356 151.063 126.077C151.644 125.802 152.306 125.751 152.922 125.934C153.539 126.116 154.066 126.519 154.402 127.065C155.949 129.551 156.49 132.531 155.916 135.4L155.942 135.383ZM119.051 109.364C117.851 109.217 116.642 109.286 115.442 109.174C115.277 109.174 115.19 109.07 115.26 108.879C115.338 108.763 115.383 108.628 115.39 108.489C115.303 107.838 115.634 107.621 116.199 107.387C116.303 107.33 116.423 107.309 116.541 107.326C116.659 107.343 116.768 107.398 116.851 107.483C117.556 108.081 118.234 108.74 119.025 109.347L119.051 109.364ZM114.486 104.846C114.023 104.686 113.589 104.455 113.199 104.161C111.308 103.157 109.241 102.527 107.111 102.305C106.155 102.129 105.211 101.895 104.285 101.602C106.929 101.004 113.355 103.059 114.46 104.829L114.486 104.846Z" fill="#231F20"/>
<path d="M502.778 30.5415L34.5281 30.5425L34.5236 269.713L502.774 269.713L502.778 30.5415Z" stroke="#ECEBD8"/>
<path d="M311.075 -8.68701V22.3133M326.075 7.31299H295.075" stroke="white" stroke-opacity="0.1"/>
<path d="M381.075 -8.68799V22.3123M396.075 7.31201H365.075" stroke="white" stroke-opacity="0.1"/>
<path d="M451.075 -8.68848V22.3113M466.075 7.31152H435.075" stroke="white" stroke-opacity="0.1"/>
<path d="M521.075 -8.68848V22.3115M536.075 7.31152H505.075" stroke="white" stroke-opacity="0.1"/>
<path d="M341.076 41.3115V72.3115M356.076 57.3115H325.076" stroke="white" stroke-opacity="0.1"/>
<path d="M411.075 41.3135V72.3135M426.075 57.3135H395.075" stroke="white" stroke-opacity="0.1"/>
<path d="M481.075 41.3145V72.3145M496.075 57.3145H465.075" stroke="white" stroke-opacity="0.1"/>
<path d="M551.075 41.3145V72.3145M566.075 57.3145H535.075" stroke="white" stroke-opacity="0.1"/>
<path d="M311.075 91.3096V122.31M326.075 107.31H295.075" stroke="white" stroke-opacity="0.1"/>
<path d="M381.075 91.3115V122.312M396.075 107.312H365.075" stroke="white" stroke-opacity="0.1"/>
<path d="M451.075 91.3115V122.312M466.075 107.312H435.075" stroke="white" stroke-opacity="0.1"/>
<path d="M521.075 91.3125V122.312M536.075 107.312H505.075" stroke="white" stroke-opacity="0.1"/>
<path d="M341.075 141.308V172.308M356.075 157.308H325.075" stroke="white" stroke-opacity="0.1"/>
<path d="M411.075 141.309V172.309M426.075 157.309H395.075" stroke="white" stroke-opacity="0.1"/>
<path d="M481.075 141.309V172.309M496.075 157.309H465.075" stroke="white" stroke-opacity="0.1"/>
<path d="M551.075 141.309V172.309M566.075 157.309H535.075" stroke="white" stroke-opacity="0.1"/>
<path d="M311.075 181.31V212.31M326.075 197.31H295.075" stroke="white" stroke-opacity="0.1"/>
<path d="M381.075 181.31V212.31M396.075 197.31H365.075" stroke="white" stroke-opacity="0.1"/>
<path d="M451.075 181.31V212.31M466.075 197.31H435.075" stroke="white" stroke-opacity="0.1"/>
<path d="M521.075 181.31V212.31M536.075 197.31H505.075" stroke="white" stroke-opacity="0.1"/>
<path d="M341.075 231.312V262.312M356.075 247.312H325.075" stroke="white" stroke-opacity="0.1"/>
<path d="M411.075 231.311V262.311M426.075 247.311H395.075" stroke="white" stroke-opacity="0.1"/>
<path d="M481.075 231.311V262.311M496.075 247.311H465.075" stroke="white" stroke-opacity="0.1"/>
<path d="M551.075 231.31V262.31M566.075 247.31H535.075" stroke="white" stroke-opacity="0.1"/>
<path d="M311.168 141.182L307.135 136.014V135.754L311.168 130.572H312.617L308.844 135.891L312.617 141.182H311.168ZM315.393 141.182L311.359 136.014V135.754L315.393 130.572H316.842L313.068 135.891L316.842 141.182H315.393ZM319.508 147.84L319.33 141.633H320.684C321.176 141.122 321.677 140.384 322.188 139.418C322.698 138.443 323.14 137.203 323.514 135.699C323.896 134.186 324.138 132.363 324.238 130.23L324.512 124.461L322.365 124.297V123.094H337.801V124.297L335.572 124.475V141.633H337.719L337.596 147.826H336.064V143H320.971V147.84H319.508ZM322.557 141.633H333.932V124.475H326.166L325.893 130.23C325.801 131.99 325.592 133.607 325.264 135.084C324.945 136.551 324.553 137.841 324.088 138.953C323.623 140.065 323.113 140.958 322.557 141.633ZM340.467 148.688V147.484L342.641 147.307V129.588L340.412 129.41V128.207H344.008L344.213 130.463C344.705 129.661 345.339 129.041 346.113 128.604C346.897 128.157 347.818 127.934 348.875 127.934C350.069 127.934 351.09 128.257 351.938 128.904C352.785 129.542 353.432 130.445 353.879 131.611C354.335 132.769 354.562 134.141 354.562 135.727V136.014C354.562 137.481 354.335 138.762 353.879 139.855C353.423 140.94 352.776 141.783 351.938 142.385C351.099 142.986 350.092 143.287 348.916 143.287C347.868 143.287 346.952 143.091 346.168 142.699C345.393 142.307 344.764 141.76 344.281 141.059V147.307L346.564 147.484V148.688H340.467ZM348.533 141.92C349.964 141.92 351.049 141.382 351.787 140.307C352.535 139.231 352.908 137.8 352.908 136.014V135.727C352.908 134.469 352.74 133.361 352.402 132.404C352.065 131.447 351.568 130.7 350.912 130.162C350.265 129.615 349.463 129.342 348.506 129.342C347.385 129.342 346.482 129.615 345.799 130.162C345.124 130.709 344.618 131.402 344.281 132.24V139.295C344.628 140.106 345.156 140.749 345.867 141.223C346.578 141.688 347.467 141.92 348.533 141.92ZM359.854 148.975C359.662 148.975 359.43 148.952 359.156 148.906C358.892 148.87 358.691 148.833 358.555 148.797L358.746 147.443C358.874 147.462 359.051 147.48 359.279 147.498C359.516 147.525 359.689 147.539 359.799 147.539C360.51 147.539 361.075 147.302 361.494 146.828C361.913 146.363 362.296 145.698 362.643 144.832L363.408 142.822L357.98 129.506L356.381 129.41V128.207H361.59V129.41L359.717 129.533L363.518 139.076L364.133 140.758H364.215L368.439 129.533L366.512 129.41V128.207H371.68V129.41L370.107 129.506L364.037 145.379C363.764 146.072 363.454 146.691 363.107 147.238C362.761 147.785 362.328 148.209 361.809 148.51C361.289 148.82 360.637 148.975 359.854 148.975ZM372.855 143V141.811L374.838 141.674L380.061 135.303L376.82 130.982C376.392 130.417 376.018 130.03 375.699 129.82C375.38 129.602 375.011 129.492 374.592 129.492C374.41 129.492 374.268 129.506 374.168 129.533C374.068 129.561 373.895 129.611 373.648 129.684L373.307 128.494C373.544 128.33 373.781 128.207 374.018 128.125C374.264 128.043 374.537 128.002 374.838 128.002C375.439 128.002 375.991 128.166 376.492 128.494C377.003 128.822 377.54 129.378 378.105 130.162L381.469 134.77H383.342V129.588L381.113 129.41V128.207H387.211V129.41L384.982 129.588V134.77H386.979L390.342 130.162C390.898 129.378 391.426 128.822 391.928 128.494C392.429 128.166 392.99 128.002 393.609 128.002C393.901 128.002 394.165 128.048 394.402 128.139C394.648 128.221 394.895 128.339 395.141 128.494L394.799 129.684C394.553 129.611 394.375 129.561 394.266 129.533C394.165 129.506 394.029 129.492 393.855 129.492C393.427 129.492 393.053 129.602 392.734 129.82C392.415 130.03 392.046 130.417 391.627 130.982L388.332 135.385L393.514 141.674L395.482 141.811V143H392.42L386.965 136.205H384.982V141.633L387.211 141.811V143H381.113V141.811L383.342 141.633V136.205H381.373L375.932 143H372.855ZM400.268 148.975C400.076 148.975 399.844 148.952 399.57 148.906C399.306 148.87 399.105 148.833 398.969 148.797L399.16 147.443C399.288 147.462 399.465 147.48 399.693 147.498C399.93 147.525 400.104 147.539 400.213 147.539C400.924 147.539 401.489 147.302 401.908 146.828C402.327 146.363 402.71 145.698 403.057 144.832L403.822 142.822L398.395 129.506L396.795 129.41V128.207H402.004V129.41L400.131 129.533L403.932 139.076L404.547 140.758H404.629L408.854 129.533L406.926 129.41V128.207H412.094V129.41L410.521 129.506L404.451 145.379C404.178 146.072 403.868 146.691 403.521 147.238C403.175 147.785 402.742 148.209 402.223 148.51C401.703 148.82 401.051 148.975 400.268 148.975ZM426.162 143.246C425.141 143.246 424.193 143.077 423.318 142.74C422.452 142.403 421.764 141.906 421.254 141.25C420.743 140.585 420.502 139.783 420.529 138.844L420.557 138.762H422.074C422.074 139.345 422.247 139.874 422.594 140.348C422.949 140.822 423.437 141.2 424.057 141.482C424.676 141.756 425.378 141.893 426.162 141.893C427.438 141.893 428.418 141.628 429.102 141.1C429.794 140.562 430.141 139.851 430.141 138.967C430.141 137.992 429.817 137.281 429.17 136.834C428.532 136.378 427.548 136.15 426.217 136.15H423.961V134.742H426.217C427.511 134.742 428.445 134.519 429.02 134.072C429.594 133.617 429.881 132.965 429.881 132.117C429.881 131.297 429.576 130.627 428.965 130.107C428.363 129.588 427.429 129.328 426.162 129.328C425.451 129.328 424.804 129.451 424.221 129.697C423.637 129.943 423.173 130.285 422.826 130.723C422.489 131.151 422.32 131.643 422.32 132.199H420.803L420.775 132.117C420.739 131.306 420.958 130.59 421.432 129.971C421.906 129.342 422.557 128.854 423.387 128.508C424.216 128.152 425.141 127.975 426.162 127.975C427.848 127.975 429.165 128.335 430.113 129.055C431.061 129.775 431.535 130.8 431.535 132.131C431.535 132.86 431.307 133.516 430.852 134.1C430.405 134.674 429.767 135.111 428.938 135.412C430.852 135.959 431.809 137.135 431.809 138.939C431.809 139.833 431.572 140.603 431.098 141.25C430.624 141.897 429.963 142.394 429.115 142.74C428.277 143.077 427.292 143.246 426.162 143.246ZM310.484 179V177.811L312.713 177.633V165.574H308.707L308.611 168.391H307.148V164.207H320.109V168.391H318.646L318.551 165.574H314.354V177.633L316.582 177.811V179H310.484ZM322.557 179V177.811L324.785 177.633V165.588L322.557 165.41V164.207H326.426V177.633L328.654 177.811V179H322.557ZM324.594 160.037V157.672H326.426V160.037H324.594ZM331.17 179L331.184 177.551L331.703 177.537C332.378 177.537 332.924 177.323 333.344 176.895C333.763 176.466 334.068 175.755 334.26 174.762C334.46 173.759 334.561 172.419 334.561 170.742V165.588L332.332 165.41V164.207H344.117H346.346V165.41L344.117 165.588V177.633L346.346 177.811V179H340.234V177.811L342.463 177.633V165.602H336.201V170.742C336.201 173.65 335.864 175.755 335.189 177.059C334.515 178.353 333.371 179 331.758 179H331.17ZM355.766 179.287C354.444 179.287 353.291 178.973 352.307 178.344C351.322 177.706 350.557 176.826 350.01 175.705C349.472 174.575 349.203 173.285 349.203 171.836V171.385C349.203 169.936 349.472 168.65 350.01 167.529C350.557 166.408 351.318 165.529 352.293 164.891C353.277 164.253 354.426 163.934 355.738 163.934C357.06 163.934 358.208 164.253 359.184 164.891C360.168 165.529 360.929 166.408 361.467 167.529C362.014 168.641 362.287 169.926 362.287 171.385V171.836C362.287 173.294 362.014 174.584 361.467 175.705C360.929 176.826 360.173 177.706 359.197 178.344C358.222 178.973 357.078 179.287 355.766 179.287ZM355.766 177.92C356.777 177.92 357.648 177.651 358.377 177.113C359.106 176.576 359.667 175.846 360.059 174.926C360.451 174.005 360.646 172.975 360.646 171.836V171.385C360.646 170.255 360.446 169.234 360.045 168.322C359.653 167.402 359.092 166.673 358.363 166.135C357.634 165.588 356.759 165.314 355.738 165.314C354.717 165.314 353.838 165.588 353.1 166.135C352.37 166.673 351.81 167.402 351.418 168.322C351.035 169.234 350.844 170.255 350.844 171.385V171.836C350.844 172.984 351.035 174.019 351.418 174.939C351.81 175.851 352.375 176.576 353.113 177.113C353.852 177.651 354.736 177.92 355.766 177.92ZM365.021 179V177.811L367.25 177.633V165.588L365.021 165.41V164.207H367.25H369.396L375.207 176.717L375.275 176.771L381.127 164.207H383.164H385.393V165.41L383.164 165.588V177.633L385.393 177.811V179H379.295V177.811L381.523 177.633V167.16L381.441 167.133L375.85 179H374.674L368.973 166.859L368.891 166.873V177.633L371.119 177.811V179H365.021ZM388.4 176.785L392.16 171.48L388.4 166.094H389.85L393.869 171.344V171.604L389.85 176.785H388.4ZM392.707 176.785L396.467 171.48L392.707 166.094H394.156L398.176 171.344V171.604L394.156 176.785H392.707Z" fill="#BABBBC"/>
</g>
</g>
<defs>
<clipPath id="clip0_3_19">
<rect width="538" height="300" fill="white"/>
</clipPath>
</defs>
</svg>
