<svg width="538" height="300" viewBox="0 0 538 300" fill="none" xmlns="http://www.w3.org/2000/svg">
<g clip-path="url(#clip0_3_271)">
<path d="M538.226 0.0086878L-0.919067 0.00976562L-0.924672 300.247L538.22 300.246L538.226 0.0086878Z" fill="#FBFBFB"/>
<mask id="mask0_3_271" style="mask-type:alpha" maskUnits="userSpaceOnUse" x="-1" y="0" width="540" height="301">
<path d="M538.226 0.0086878L-0.919067 0.00976562L-0.924672 300.247L538.22 300.246L538.226 0.0086878Z" fill="#1C1D21"/>
</mask>
<g mask="url(#mask0_3_271)">
<path d="M502.778 30.5415L34.5278 30.5425L34.5234 269.713L502.773 269.713L502.778 30.5415Z" stroke="#ECEBD8"/>
<path d="M259.579 -5.7002H-7.42078V320.3H259.579V-5.7002Z" fill="#E4E3C2"/>
<path d="M600.576 -5.68945H454.576V320.311H600.576V-5.68945Z" fill="#E4E3C2"/>
<mask id="mask1_3_271" style="mask-type:alpha" maskUnits="userSpaceOnUse" x="-8" y="-6" width="609" height="327">
<path d="M-7.42096 -5.7002H259.579V320.3H-7.42096V-5.7002Z" fill="#E4E3C2"/>
<path d="M454.576 -5.68945H600.576V320.311H454.576V-5.68945Z" fill="#E4E3C2"/>
</mask>
<g mask="url(#mask1_3_271)">
<path opacity="0.22" d="M502.782 30.5279L34.5319 30.5288L34.5275 269.7L502.777 269.699L502.782 30.5279Z" stroke="#1C1D21"/>
</g>
<path d="M164.635 128.162C164.936 129.817 165.525 131.408 166.375 132.862C166.748 133.53 166.963 134.275 167.002 135.039C167.041 135.803 166.904 136.565 166.601 137.268C165.731 139.375 164.835 141.483 164.157 143.651C163.318 146.096 162.006 148.353 160.296 150.294C158.748 152.168 157.122 153.972 155.6 155.862C154.852 156.799 153.991 157.597 153.208 158.464C152.069 159.687 150.912 160.936 149.878 162.289C147.923 164.694 145.57 166.747 142.92 168.36C141.632 169.081 140.418 169.927 139.294 170.883C139.185 170.984 139.062 171.069 138.929 171.135C134.276 173.65 129.493 175.653 124.032 175.384C120.119 175.281 116.216 174.942 112.344 174.37C108.478 173.696 104.759 172.358 101.351 170.415C98.702 168.946 96.225 167.186 93.968 165.168C90.939 162.574 88.342 159.518 86.272 156.114C84.967 153.885 83.576 151.708 82.358 149.436C81.051 146.902 79.8891 144.296 78.8801 141.63C78.0731 139.5 77.453 137.303 77.028 135.065C76.301 132.272 76.301 129.341 77.028 126.548C76.915 126.418 76.8401 126.26 76.8111 126.09C76.7821 125.92 76.799 125.746 76.862 125.586C76.788 125.467 76.738 125.334 76.715 125.195C76.603 125.059 76.528 124.897 76.498 124.724C76.467 124.551 76.482 124.373 76.541 124.207C76.436 123.938 76.332 123.686 76.219 123.426C76.232 123.227 76.232 123.027 76.219 122.828C76.143 122.717 76.097 122.589 76.088 122.455C76.037 122.361 76.0171 122.253 76.0311 122.147C76.0451 122.041 76.0921 121.942 76.1671 121.865C75.6541 119.974 76.045 118.093 76.262 116.219C76.422 115.36 76.6461 114.513 76.9321 113.687C76.9031 113.247 77.022 112.81 77.271 112.447C77.202 111.562 77.775 110.859 78.002 110.062C78.04 109.519 78.2601 109.006 78.6281 108.605C78.6971 108.414 78.741 108.206 78.81 108.006C78.781 107.907 78.781 107.801 78.812 107.702C78.843 107.603 78.903 107.516 78.984 107.451C79.077 107.35 79.179 107.257 79.289 107.174C79.376 106.981 79.446 106.781 79.497 106.575C79.538 106.382 79.5961 106.194 79.6711 106.011C79.7561 105.911 79.852 105.821 79.958 105.743C80.063 105.555 80.1391 105.354 80.1841 105.144C80.2281 104.945 80.2891 104.754 80.3501 104.554C80.3141 104.458 80.311 104.352 80.341 104.254C80.371 104.155 80.432 104.069 80.515 104.008C80.608 103.902 80.713 103.806 80.828 103.722L81.037 103.149L81.532 102.282C81.593 102.091 81.567 101.996 81.724 101.701C81.88 101.406 82.141 101.025 82.211 100.834C82.28 100.643 82.3411 100.444 82.4191 100.253C82.4021 100.075 82.441 99.8965 82.53 99.7415C82.618 99.5865 82.753 99.4625 82.915 99.3855C82.962 99.1925 83.026 99.0045 83.106 98.8225C83.199 98.7235 83.301 98.6335 83.411 98.5535C83.496 98.3645 83.5691 98.1705 83.6281 97.9725C83.7241 97.8765 83.819 97.7725 83.924 97.6865C84.18 96.5355 84.766 95.4835 85.611 94.6595C87.54 91.9605 89.699 89.4335 92.064 87.1055C93.299 85.9605 94.6641 84.9545 95.9601 83.8795C97.7591 82.4805 99.7471 81.3415 101.865 80.4965C104.482 79.3435 107.152 78.2675 110.074 78.1555C110.202 78.0875 110.336 78.0325 110.474 77.9905C110.608 77.8825 110.772 77.8155 110.943 77.8005C111.115 77.7855 111.288 77.8205 111.439 77.9035C111.697 77.7815 111.969 77.6915 112.248 77.6345C113.822 77.5045 115.396 77.3835 116.97 77.3135C117.324 77.3475 117.672 77.4255 118.005 77.5485C119.24 77.1925 120.492 77.5485 121.736 77.5485C124.609 77.6895 127.443 78.2745 130.137 79.2825C130.568 79.3955 130.963 79.6165 131.285 79.9245C131.432 80.0915 131.614 80.2245 131.819 80.3145C132.023 80.4045 132.244 80.4485 132.467 80.4445C133.355 80.4955 134.22 80.7445 134.998 81.1735C136.078 81.6445 137.199 82.0155 138.346 82.2835C138.92 82.4245 139.47 82.6465 139.981 82.9425C140.877 83.4675 141.813 83.9195 142.781 84.2955C145.668 85.3625 147.886 87.4525 150.443 89.0305C150.504 89.0745 150.608 89.1085 150.608 89.1695C151.452 91.1295 153.556 92.0575 154.6 93.7925C154.853 94.1575 155.144 94.4945 155.469 94.7985C156.235 95.6035 156.827 96.5565 157.209 97.5995C157.607 98.7075 158.102 99.7775 158.687 100.799C158.792 100.95 158.864 101.122 158.898 101.303C158.933 101.483 158.929 101.669 158.887 101.849C159.026 102.95 159.957 103.748 160.418 104.528C160.879 105.309 161.574 106.02 161.47 107.043C161.305 107.755 161.835 108.128 162.218 108.561C162.496 108.969 162.633 109.456 162.609 109.949C162.591 110.175 162.639 110.402 162.747 110.602C162.855 110.802 163.018 110.967 163.218 111.076C163.344 111.202 163.429 111.364 163.46 111.539C163.491 111.714 163.467 111.895 163.392 112.056C163.961 112.992 164.332 114.035 164.481 115.119C164.631 116.203 164.556 117.307 164.261 118.361C164.148 118.932 164.125 119.518 164.192 120.096C164.334 121.759 164.276 123.433 164.018 125.083L164.122 125.516C164.178 125.612 164.199 125.724 164.182 125.833C164.165 125.942 164.11 126.042 164.027 126.115L163.948 126.783C164.241 127.208 164.472 127.672 164.635 128.162Z" stroke="#231F20" stroke-miterlimit="10"/>
<path d="M75.967 222.071H74.558V212.427H75.967V216.407H76.619C76.925 216.41 77.23 216.387 77.532 216.338C77.838 216.29 78.133 216.187 78.402 216.034L80.854 212.427H82.593L79.4191 216.971L81.159 219.573C81.286 219.781 81.438 219.973 81.611 220.145C81.736 220.272 81.876 220.383 82.028 220.475C82.143 220.549 82.269 220.601 82.402 220.631H82.75H83.054V222.062H82.55C82.336 222.076 82.1211 222.076 81.9061 222.062C81.6961 222.035 81.493 221.971 81.306 221.871C81.08 221.755 80.874 221.603 80.698 221.42C80.445 221.159 80.226 220.868 80.045 220.553L78.193 217.595C77.971 217.689 77.737 217.753 77.497 217.786C77.264 217.821 77.029 217.838 76.793 217.838H75.975L75.967 222.071Z" fill="#231F20" stroke="#231F20" stroke-width="0.7" stroke-miterlimit="10"/>
<path d="M95.795 217.266C95.802 217.951 95.657 218.63 95.369 219.252C95.098 219.851 94.7141 220.393 94.2381 220.848C93.7651 221.291 93.217 221.65 92.62 221.906C91.32 222.426 89.868 222.426 88.568 221.906C87.94 221.665 87.367 221.302 86.881 220.839C86.398 220.355 86.016 219.779 85.758 219.147C85.5 218.514 85.3701 217.836 85.3761 217.153C85.3701 216.474 85.5121 215.803 85.7941 215.184C86.0651 214.588 86.452 214.052 86.933 213.606C87.421 213.16 87.987 212.808 88.603 212.565C89.234 212.316 89.9071 212.189 90.5851 212.192C91.2801 212.187 91.969 212.319 92.612 212.583C93.228 212.833 93.7891 213.201 94.2641 213.667C94.7381 214.131 95.119 214.682 95.386 215.289C95.655 215.913 95.794 216.586 95.795 217.266ZM94.377 217.179C94.385 216.68 94.281 216.185 94.073 215.731C93.863 215.292 93.567 214.9 93.203 214.577C92.85 214.252 92.436 213.999 91.986 213.832C91.519 213.655 91.024 213.567 90.525 213.571C90.011 213.567 89.5001 213.658 89.0201 213.84C88.5701 214.012 88.1591 214.271 87.8111 214.603C87.4701 214.941 87.199 215.342 87.011 215.783C86.808 216.254 86.708 216.762 86.716 217.275C86.712 217.769 86.8191 218.258 87.0291 218.706C87.2381 219.142 87.534 219.532 87.898 219.85C88.252 220.175 88.665 220.429 89.116 220.596C89.577 220.781 90.071 220.876 90.568 220.874C91.072 220.876 91.572 220.779 92.038 220.588C92.484 220.406 92.8921 220.141 93.2381 219.807C93.5861 219.475 93.864 219.077 94.055 218.636C94.264 218.179 94.368 217.681 94.36 217.179H94.377Z" fill="#231F20" stroke="#231F20" stroke-width="0.7" stroke-miterlimit="10"/>
<path d="M103.795 219.382L100.517 215.445V222.071H99.134V213.788L98.004 212.427H99.83L103.787 217.162L107.787 212.427H109.613L108.483 213.788V222.071H107.1V215.445L103.795 219.382Z" fill="#231F20" stroke="#231F20" stroke-width="0.7" stroke-miterlimit="10"/>
<path d="M121.197 220.136C120.824 220.132 120.452 220.158 120.084 220.214C119.762 220.274 119.451 220.382 119.162 220.535V222.07H117.779V220.535C117.475 220.348 117.134 220.23 116.779 220.188C116.435 220.152 116.09 220.135 115.744 220.136C115.222 220.137 114.704 220.034 114.222 219.832C113.759 219.638 113.335 219.362 112.97 219.017C112.604 218.676 112.309 218.266 112.101 217.811C111.885 217.347 111.775 216.84 111.779 216.328C111.774 215.813 111.884 215.304 112.101 214.837C112.306 214.378 112.602 213.965 112.97 213.622C113.335 213.277 113.759 213.001 114.222 212.807C114.704 212.605 115.222 212.502 115.744 212.504H117.779V212.044H119.162V212.504H121.197C121.708 212.501 122.215 212.604 122.684 212.807C123.142 212.997 123.558 213.274 123.91 213.622C124.621 214.345 125.02 215.316 125.023 216.328C125.025 216.838 124.921 217.343 124.719 217.811C124.53 218.265 124.252 218.677 123.903 219.024C123.554 219.371 123.14 219.645 122.684 219.832C122.215 220.035 121.708 220.138 121.197 220.136ZM115.744 218.713C116.119 218.708 116.494 218.728 116.866 218.774C117.189 218.823 117.5 218.935 117.779 219.104V213.9H115.744C115.422 213.899 115.102 213.964 114.805 214.091C114.518 214.209 114.258 214.383 114.04 214.602C113.821 214.823 113.644 215.082 113.518 215.366C113.394 215.662 113.332 215.981 113.335 216.302C113.335 216.621 113.397 216.936 113.518 217.23C113.639 217.517 113.817 217.776 114.04 217.993C114.261 218.208 114.52 218.378 114.805 218.496C115.099 218.636 115.419 218.71 115.744 218.713ZM121.197 218.713C121.52 218.718 121.841 218.653 122.136 218.522C122.42 218.402 122.679 218.232 122.901 218.019C123.122 217.8 123.299 217.541 123.423 217.256C123.545 216.962 123.607 216.647 123.606 216.328C123.609 216.007 123.547 215.688 123.423 215.392C123.294 215.109 123.118 214.851 122.901 214.628C122.682 214.411 122.422 214.237 122.136 214.117C121.839 213.99 121.52 213.925 121.197 213.926H119.162V219.13C119.458 218.948 119.791 218.836 120.136 218.8C120.487 218.749 120.842 218.72 121.197 218.713Z" fill="#231F20" stroke="#231F20" stroke-width="0.7" stroke-miterlimit="10"/>
<path d="M138.268 217.266C138.274 217.95 138.132 218.628 137.851 219.252C137.579 219.85 137.192 220.39 136.711 220.839C136.228 221.291 135.665 221.65 135.05 221.897C134.423 222.166 133.749 222.308 133.067 222.314C132.385 222.321 131.708 222.192 131.076 221.935C130.444 221.679 129.869 221.299 129.386 220.819C128.902 220.339 128.519 219.768 128.258 219.139C127.986 218.494 127.847 217.801 127.85 217.101C127.842 216.421 127.988 215.748 128.276 215.132C128.547 214.536 128.934 214 129.415 213.554C130.411 212.642 131.715 212.137 133.068 212.14C133.762 212.135 134.451 212.267 135.094 212.531C136.336 213.036 137.329 214.008 137.859 215.236C138.139 215.876 138.278 216.568 138.268 217.266ZM136.859 217.179C136.863 216.68 136.76 216.186 136.555 215.731C136.345 215.292 136.049 214.9 135.685 214.577C135.33 214.254 134.917 214.001 134.468 213.831C133.511 213.479 132.459 213.479 131.502 213.831C131.051 214.001 130.64 214.261 130.293 214.595C129.95 214.932 129.675 215.332 129.485 215.774C129.289 216.247 129.191 216.754 129.198 217.266C129.194 217.76 129.301 218.249 129.511 218.697C129.719 219.134 130.015 219.523 130.38 219.842C131.122 220.488 132.074 220.843 133.059 220.839C133.563 220.842 134.063 220.745 134.529 220.553C135.434 220.192 136.162 219.492 136.555 218.601C136.756 218.154 136.86 217.669 136.859 217.179Z" fill="#231F20" stroke="#231F20" stroke-width="0.7" stroke-miterlimit="10"/>
<path d="M141.529 222.071V212.427H146.538C146.935 212.425 147.328 212.489 147.704 212.617C148.028 212.738 148.324 212.924 148.573 213.164C148.825 213.407 149.018 213.703 149.138 214.031C149.402 214.777 149.402 215.591 149.138 216.338C149.012 216.663 148.819 216.958 148.573 217.205C148.326 217.45 148.03 217.639 147.704 217.76C147.33 217.895 146.935 217.963 146.538 217.96H144.799C144.484 217.96 144.17 217.986 143.86 218.038C143.557 218.096 143.264 218.198 142.99 218.341V222.053L141.529 222.071ZM146.495 216.555C146.684 216.584 146.878 216.569 147.061 216.512C147.244 216.454 147.411 216.355 147.549 216.222C147.687 216.09 147.792 215.927 147.857 215.747C147.921 215.567 147.943 215.374 147.921 215.184C147.942 214.996 147.92 214.805 147.857 214.627C147.794 214.448 147.691 214.286 147.556 214.152C147.248 213.931 146.873 213.824 146.495 213.849H142.947V216.945C143.212 216.78 143.508 216.668 143.816 216.615C144.127 216.573 144.441 216.553 144.755 216.555H146.495Z" fill="#231F20" stroke="#231F20" stroke-width="0.7" stroke-miterlimit="10"/>
<path d="M156.635 213.849V222.071H155.235V213.849H151.756V212.427H159.992V213.849H156.635Z" fill="#231F20" stroke="#231F20" stroke-width="0.7" stroke-miterlimit="10"/>
<path d="M164.366 212.262H165.923L170.575 222.071H168.992L168.358 220.666H165.418C165.025 220.66 164.632 220.689 164.244 220.752C163.947 220.801 163.656 220.879 163.374 220.987C163.166 221.061 162.97 221.167 162.792 221.299C162.668 221.382 162.564 221.492 162.487 221.62L162.244 222.071H160.713L164.896 213.45L164.366 212.262ZM167.723 219.2L165.609 215.124L163.479 219.738C163.74 219.554 164.036 219.424 164.348 219.356C164.876 219.238 165.417 219.186 165.957 219.2H167.723Z" fill="#231F20" stroke="#231F20" stroke-width="0.7" stroke-miterlimit="10"/>
<path d="M75.071 188.983C75.541 188.515 76.01 188.116 76.48 187.7C76.956 187.304 77.475 186.964 78.028 186.685C78.627 186.381 79.265 186.16 79.924 186.026C80.736 185.859 81.5641 185.781 82.3931 185.792C83.5871 185.753 84.774 185.975 85.872 186.442C86.72 186.814 87.481 187.357 88.107 188.038C88.641 188.626 89.0501 189.316 89.3071 190.067C89.5191 190.697 89.636 191.355 89.655 192.019C89.683 192.794 89.54 193.567 89.237 194.282C88.914 194.913 88.4321 195.448 87.8371 195.835C88.6721 196.302 89.384 196.958 89.916 197.751C90.443 198.633 90.7 199.649 90.655 200.674C90.657 201.482 90.503 202.283 90.203 203.033C89.892 203.816 89.4011 204.514 88.7681 205.071C88.0241 205.715 87.153 206.197 86.211 206.485C84.178 207.084 82.027 207.177 79.95 206.754C79.122 206.58 78.31 206.336 77.523 206.025C76.75 205.719 76.01 205.335 75.314 204.88C74.672 204.451 74.087 203.941 73.575 203.363L75.341 200.891C75.719 201.392 76.174 201.831 76.689 202.192C77.23 202.587 77.813 202.921 78.428 203.189C79.058 203.468 79.7171 203.678 80.3931 203.813C81.0531 203.956 81.727 204.029 82.402 204.03C83.246 204.048 84.089 203.952 84.907 203.744C85.495 203.6 86.052 203.35 86.55 203.007C86.932 202.733 87.233 202.362 87.42 201.932C87.604 201.516 87.699 201.067 87.698 200.613C87.718 200.104 87.595 199.599 87.342 199.156C87.111 198.796 86.794 198.498 86.42 198.289C86.02 198.064 85.585 197.909 85.133 197.829C84.654 197.74 84.168 197.693 83.68 197.691H80.332V194.725H83.689C84.482 194.764 85.2631 194.518 85.8891 194.031C86.1741 193.762 86.395 193.434 86.535 193.069C86.675 192.704 86.731 192.313 86.698 191.923C86.713 191.412 86.5671 190.908 86.2811 190.484C86.0011 190.085 85.635 189.753 85.211 189.512C84.773 189.254 84.298 189.064 83.802 188.948C83.34 188.839 82.8681 188.781 82.3931 188.775C81.8241 188.767 81.255 188.822 80.698 188.94C80.219 189.038 79.754 189.195 79.315 189.408C78.891 189.614 78.491 189.867 78.123 190.163C77.72 190.49 77.334 190.837 76.967 191.203L75.071 188.983Z" fill="#231F20"/>
<path d="M118.388 196.495C118.407 197.929 118.111 199.35 117.518 200.658C116.955 201.913 116.148 203.045 115.144 203.988C114.134 204.936 112.954 205.686 111.666 206.2C108.951 207.303 105.91 207.303 103.195 206.2C100.592 205.121 98.524 203.056 97.447 200.458C96.87 199.112 96.574 197.663 96.577 196.2C96.564 194.78 96.861 193.374 97.447 192.08C98.016 190.832 98.829 189.708 99.838 188.776C101.119 187.56 102.673 186.67 104.371 186.18C106.069 185.69 107.861 185.614 109.594 185.961C111.327 186.307 112.951 187.064 114.329 188.169C115.707 189.273 116.798 190.692 117.51 192.306C118.088 193.627 118.387 195.053 118.388 196.495ZM115.431 196.321C115.443 195.276 115.226 194.24 114.796 193.286C114.385 192.376 113.794 191.559 113.057 190.884C112.323 190.205 111.463 189.674 110.526 189.322C109.55 188.948 108.512 188.759 107.465 188.767C106.39 188.76 105.323 188.951 104.317 189.331C103.375 189.694 102.515 190.239 101.786 190.936C101.067 191.636 100.496 192.474 100.108 193.399C99.689 194.383 99.478 195.443 99.491 196.512C99.482 197.551 99.705 198.579 100.143 199.522C100.557 200.425 101.148 201.236 101.882 201.907C102.63 202.578 103.494 203.109 104.43 203.476C105.397 203.853 106.427 204.044 107.465 204.04C108.52 204.044 109.566 203.844 110.544 203.45C112.425 202.682 113.938 201.223 114.77 199.374C115.209 198.416 115.435 197.375 115.431 196.321Z" fill="#231F20"/>
<path d="M128.632 206.555H125.667V186.391H128.624V194.656C129.027 194.464 129.454 194.325 129.893 194.24C130.324 194.161 130.76 194.12 131.198 194.118C131.485 194.118 131.911 194.118 132.459 194.214L134.25 194.413L136.155 194.621C136.789 194.682 137.329 194.717 137.781 194.717C138.235 194.711 138.689 194.673 139.138 194.604C139.616 194.536 140.082 194.398 140.52 194.196V186.391H143.477V206.555H140.52V197.171C140.084 197.372 139.621 197.509 139.146 197.579C138.697 197.645 138.244 197.68 137.79 197.683C137.337 197.683 136.798 197.683 136.163 197.596L134.259 197.388L132.476 197.189C131.928 197.128 131.502 197.093 131.215 197.093C130.78 197.095 130.347 197.136 129.919 197.215C129.479 197.295 129.052 197.435 128.65 197.631L128.632 206.555Z" fill="#231F20"/>
<path d="M157.339 186.036H160.592L170.323 206.555H167.01L165.688 203.606H159.531C158.709 203.597 157.888 203.661 157.078 203.797C156.455 203.9 155.844 204.063 155.252 204.283C154.816 204.443 154.403 204.662 154.026 204.933C153.772 205.11 153.56 205.341 153.408 205.61L152.887 206.555H149.695L158.444 188.525L157.339 186.036ZM164.357 200.632L159.939 192.115L155.469 201.759C155.989 201.379 156.581 201.107 157.209 200.961C158.312 200.707 159.443 200.593 160.574 200.623L164.357 200.632Z" fill="#231F20"/>
<path d="M152.234 127.278C152.039 126.818 151.742 126.407 151.365 126.077C150.989 125.746 150.543 125.505 150.06 125.37C149.321 125.206 148.55 125.244 147.831 125.48C147.111 125.717 146.469 126.143 145.973 126.714C144.851 127.859 144.599 129.403 144.416 130.92C144.173 132.993 144.121 135.083 144.051 137.173C144.05 138.066 143.873 138.951 143.529 139.775C143.312 140.252 142.964 140.313 142.486 140.244C142.007 140.174 141.946 139.801 141.903 139.437C141.896 139.211 141.91 138.984 141.946 138.761C142.225 136.566 142.816 134.424 143.207 132.265C143.579 130.494 143.653 128.674 143.425 126.879C143.299 125.918 142.83 125.034 142.103 124.39C141.67 124.033 141.17 123.767 140.633 123.606C140.095 123.445 139.53 123.393 138.972 123.453C137.467 123.583 135.969 123.792 134.485 124.078C132.25 124.442 130.006 124.771 127.771 125.101C125.771 125.396 123.78 125.734 121.771 125.968C119.327 126.246 116.883 126.506 114.422 126.688C110.291 126.983 106.169 127.174 102.073 126.307C101.02 126.118 100.026 125.687 99.169 125.049C98.403 124.425 97.708 123.271 98.473 122.256C98.792 121.841 99.199 121.5 99.664 121.259C101.026 120.641 102.519 120.364 104.013 120.452C105.737 120.501 107.455 120.681 109.152 120.99C111.518 121.337 113.886 121.649 116.257 121.927C119.318 122.291 122.388 122.482 125.458 122.647C129.806 122.881 134.111 122.872 138.442 122.837C140.226 122.845 141.996 122.518 143.66 121.875C144.469 121.604 145.193 121.127 145.761 120.491C146.328 119.855 146.719 119.083 146.895 118.25C147.35 116.216 147.248 114.098 146.599 112.118C146.421 111.545 146.123 111.017 145.724 110.568C145.325 110.119 144.835 109.761 144.286 109.516C143.33 109.089 142.298 108.856 141.251 108.831C141.894 108.705 142.556 108.705 143.199 108.831C143.542 108.897 143.895 108.881 144.231 108.784C144.566 108.688 144.874 108.514 145.129 108.276C145.464 108.018 145.773 107.727 146.051 107.409C146.34 107.146 146.602 106.855 146.834 106.541C146.917 106.431 146.992 106.315 147.06 106.195C147.062 106.106 147.041 106.018 146.998 105.941C146.955 105.863 146.893 105.798 146.816 105.752C146.794 105.738 146.768 105.729 146.741 105.726C146.715 105.723 146.687 105.726 146.662 105.735C146.637 105.744 146.614 105.759 146.596 105.779C146.577 105.798 146.563 105.822 146.556 105.848C146.351 106.319 146.055 106.747 145.686 107.105C145.382 107.348 145.068 107.678 144.99 107.738C144.644 108.03 144.216 108.209 143.764 108.25L138.911 108.007C138.032 107.981 137.157 107.862 136.302 107.652C136.81 107.238 137.371 106.897 137.972 106.637C139.258 105.843 140.738 105.417 142.251 105.405C142.888 105.411 143.517 105.266 144.086 104.98C145.286 104.394 146.253 103.423 146.834 102.222C147.647 100.792 147.931 99.1216 147.634 97.5046C147.475 97.1186 147.356 96.7176 147.277 96.3076C147.477 96.3786 147.659 96.4936 147.809 96.6436C147.96 96.7936 148.075 96.9746 148.147 97.1746C148.436 97.7756 148.574 98.4376 148.55 99.1036C148.526 99.7706 148.34 100.421 148.008 101C147.438 101.835 146.918 102.704 146.451 103.601C146.147 104.261 146.216 104.521 146.851 104.885C146.93 104.937 146.99 104.954 146.99 105.058C146.99 105.501 147.164 105.353 147.321 105.119C147.477 104.885 147.512 104.911 147.599 104.798C147.799 104.521 147.686 104.347 147.382 104.269C147.231 104.259 147.08 104.259 146.93 104.269C147.137 103.702 147.431 103.17 147.799 102.691C148.669 101.381 149.486 100.089 149.199 98.3536C148.947 96.9056 148.451 95.9256 147.164 95.6136C146.813 95.6016 146.466 95.5306 146.138 95.4056C145.627 95.1306 145.046 95.0126 144.468 95.0666C143.465 95.1116 142.483 95.3716 141.59 95.8306C138.327 97.2976 134.982 98.5776 131.572 99.6636C130.386 100.052 129.149 100.265 127.902 100.297C127.536 100.297 127.389 100.236 127.571 99.8106C127.967 98.9526 128.237 98.0406 128.371 97.1056C128.489 96.5346 128.436 95.9426 128.218 95.4026C127.999 94.8626 127.626 94.3996 127.145 94.0696C126.628 93.7516 126.094 93.4626 125.545 93.2026C125.289 93.1076 125.065 92.9406 124.902 92.7226C124.738 92.5036 124.641 92.2426 124.623 91.9706C124.614 91.8386 124.576 91.7106 124.513 91.5936C124.45 91.4766 124.363 91.3746 124.258 91.2946C123.258 90.5276 122.04 90.0966 120.779 90.0626C119.099 89.9556 117.429 90.3966 116.022 91.3206C115.011 91.8696 114.141 92.6456 113.483 93.5886C112.825 94.5306 112.396 95.6126 112.231 96.7496C112.167 97.3616 112.208 97.9806 112.352 98.5796C112.403 98.8996 112.562 99.1926 112.802 99.4096C113.043 99.6276 113.35 99.7566 113.674 99.7766C111.935 100.245 111.309 100.21 110.126 99.7156C108.317 98.9526 106.648 97.9816 104.839 97.1136C103.447 96.4636 102.03 95.8826 100.586 95.3796C98.508 94.6156 96.238 94.4596 94.212 93.6446C93.854 93.5126 93.463 93.5016 93.099 93.6126C92.734 93.7236 92.416 93.9516 92.194 94.2606C91.873 94.7016 91.644 95.2016 91.518 95.7316C91.393 96.2616 91.374 96.8106 91.464 97.3476C91.608 98.9916 92.178 100.569 93.116 101.928C93.157 101.97 93.187 102.022 93.206 102.078C93.224 102.134 93.229 102.194 93.22 102.252C93.212 102.311 93.19 102.366 93.157 102.415C93.124 102.464 93.08 102.505 93.029 102.535C92.97 102.576 92.921 102.628 92.884 102.689C92.846 102.75 92.822 102.819 92.812 102.889C92.802 102.96 92.807 103.032 92.827 103.101C92.846 103.17 92.879 103.234 92.925 103.289C94.151 105.11 95.386 106.923 96.603 108.744C96.699 108.892 96.786 109.013 96.969 108.987C97.151 108.961 97.221 108.788 97.282 108.614C97.405 108.229 97.451 107.823 97.417 107.419C97.383 107.016 97.269 106.623 97.082 106.264C96.458 105.138 95.698 104.093 94.82 103.15C94.716 103.02 94.499 102.89 94.586 102.725C94.673 102.561 94.925 102.647 95.107 102.665C95.176 102.652 95.247 102.652 95.316 102.665C96.393 103.065 97.554 103.185 98.69 103.012C100.205 102.763 101.758 103.095 103.039 103.94C104.674 105.128 105.648 106.845 106.691 108.519C106.865 108.796 106.795 109.039 106.413 109.152C105.9 109.273 105.373 109.317 104.847 109.282C101.821 109.188 98.791 109.289 95.777 109.586C94.706 109.677 93.688 110.088 92.855 110.765C91.707 111.797 91.551 113.193 91.62 114.624C91.809 116.859 92.241 119.066 92.907 121.207C93.359 122.82 93.881 124.416 94.368 126.02C95.238 128.891 96.203 131.727 97.142 134.58C97.621 136.037 98.099 137.494 98.551 138.917C98.646 139.221 98.621 139.549 98.482 139.835C98.343 140.122 98.101 140.345 97.803 140.46C97.517 140.58 97.197 140.594 96.902 140.498C96.607 140.403 96.356 140.205 96.195 139.94C96.053 139.699 95.925 139.45 95.812 139.194C94.959 137.623 94.742 135.786 95.203 134.06C95.465 133.112 95.559 132.126 95.481 131.146C95.476 130.435 95.324 129.732 95.035 129.082C94.746 128.432 94.327 127.847 93.803 127.365C93.483 127.073 93.101 126.856 92.686 126.73C92.27 126.603 91.832 126.572 91.403 126.636C91.396 126.603 91.382 126.571 91.362 126.543C91.342 126.515 91.317 126.491 91.288 126.473C91.258 126.456 91.226 126.444 91.192 126.439C91.158 126.434 91.123 126.436 91.09 126.445C89.887 126.751 88.785 127.362 87.89 128.219C86.996 129.077 86.339 130.151 85.985 131.337C85.924 131.519 85.881 131.71 85.837 131.892C85.762 132.044 85.704 132.204 85.663 132.369C85.378 133.708 85.322 135.087 85.498 136.445C85.803 138.947 86.733 141.333 88.203 143.383C90.116 146.106 92.899 147.494 95.977 148.361C98.526 149.051 101.166 149.344 103.804 149.229C106.196 149.149 108.579 148.9 110.935 148.483C112.822 148.162 114.692 147.806 116.544 147.312C117.814 146.982 119.075 146.618 120.318 146.21C122.171 145.633 123.989 144.949 125.762 144.164C127.249 143.479 128.641 142.594 130.111 141.943C131.325 141.331 132.686 141.067 134.041 141.18C135.555 141.38 135.92 142.048 135.433 143.262C134.999 144.263 134.239 145.088 133.276 145.603C130.349 147.144 127.193 148.204 123.927 148.743C121.049 149.298 118.127 149.567 115.231 149.905C113.383 150.081 111.547 150.371 109.735 150.772C108.762 150.93 107.83 151.281 106.995 151.804C106.222 152.368 106.256 153.062 107.109 153.539C108.088 153.974 109.142 154.221 110.213 154.267C112.768 154.559 115.341 154.643 117.91 154.519C118.179 154.519 118.283 154.597 118.327 154.848C118.332 154.877 118.332 154.906 118.327 154.935H118.423C118.483 155.239 118.536 155.551 118.588 155.854L118.744 156.834C118.625 157.028 118.562 157.25 118.562 157.476C118.562 158.89 118.562 160.304 118.562 161.717C118.562 162.151 118.562 162.584 118.623 163.035C118.634 163.096 118.631 163.158 118.614 163.218C118.596 163.277 118.565 163.331 118.523 163.376C118.48 163.421 118.428 163.455 118.37 163.476C118.311 163.496 118.249 163.503 118.188 163.495C118.005 163.495 117.814 163.495 117.631 163.495C115.541 163.834 113.498 164.416 111.544 165.23C110.058 165.813 108.606 166.479 107.196 167.224C106.146 167.725 105.162 168.351 104.265 169.089C104.03 169.297 103.778 169.531 103.926 169.844C104.073 170.156 104.421 170.121 104.726 170.112C105.227 170.038 105.702 169.841 106.108 169.54C108.032 168.562 110.055 167.795 112.144 167.25C114.15 166.649 116.208 166.239 118.292 166.028C119.297 165.894 120.318 165.953 121.301 166.201C121.492 166.237 121.671 166.319 121.822 166.44C121.974 166.561 122.093 166.717 122.171 166.895C122.516 167.935 122.772 169.003 122.936 170.086C122.936 170.086 122.936 170.19 122.936 170.208C122.719 169.583 122.527 168.959 122.284 168.352C122.148 167.867 121.907 167.417 121.579 167.034C121.034 166.61 120.357 166.392 119.666 166.418C118.831 166.386 117.994 166.442 117.17 166.583C114.215 167.051 111.317 167.83 108.526 168.907C107.805 169.174 107.114 169.517 106.465 169.93C105.987 170.26 105.978 170.425 106.395 170.798L106.456 170.876C106.635 171.093 106.766 171.344 106.842 171.614C106.918 171.885 106.937 172.168 106.898 172.446C106.859 172.724 106.762 172.99 106.614 173.229C106.466 173.468 106.271 173.674 106.039 173.833C105.97 173.903 105.884 173.954 105.79 173.981C105.695 174.009 105.595 174.011 105.5 173.989C106.709 172.948 106.691 171.96 105.987 171.092C105.842 170.891 105.656 170.723 105.441 170.599C105.226 170.475 104.987 170.399 104.74 170.375C104.492 170.351 104.243 170.381 104.008 170.461C103.773 170.541 103.558 170.671 103.378 170.841C103.102 171.025 102.877 171.276 102.725 171.57C102.573 171.864 102.498 172.192 102.508 172.523C102.516 172.731 102.566 172.935 102.656 173.122C102.633 173.117 102.609 173.117 102.586 173.122L102.899 173.529C102.491 172.974 102.96 173.59 103.117 173.746C103.273 173.902 103.386 173.972 103.491 174.058C103.845 174.183 104.179 174.358 104.482 174.579C104.748 174.613 105.017 174.613 105.282 174.579C105.315 174.576 105.347 174.566 105.374 174.547C105.402 174.529 105.424 174.504 105.439 174.475C105.565 174.457 105.688 174.422 105.804 174.371C105.961 174.323 106.11 174.252 106.248 174.163C106.789 173.806 107.169 173.252 107.304 172.619C107.439 171.986 107.319 171.326 106.969 170.78C106.874 170.615 106.578 170.503 106.7 170.286C106.822 170.069 107.03 170.052 107.204 169.939H107.3C108.234 169.493 109.199 169.113 110.187 168.803C111.118 168.482 112.057 168.187 112.996 167.936C114.458 167.543 115.946 167.253 117.449 167.068C118.332 166.935 119.229 166.915 120.118 167.008C120.465 167.03 120.797 167.158 121.068 167.376C121.339 167.593 121.536 167.889 121.632 168.222C121.727 168.499 121.858 168.751 121.953 169.028C122.127 169.54 122.293 170.052 122.44 170.572C122.484 170.737 122.588 170.971 122.284 171.058C122.057 171.129 121.855 171.263 121.701 171.444C121.547 171.625 121.447 171.846 121.414 172.081C121.244 172.712 121.244 173.376 121.414 174.006C121.486 174.426 121.71 174.804 122.044 175.07C122.377 175.335 122.797 175.469 123.223 175.446C123.836 175.392 124.441 175.264 125.023 175.065C125.309 174.987 125.56 174.818 125.738 174.582C125.916 174.347 126.01 174.059 126.006 173.764C126.023 173.151 125.92 172.541 125.702 171.968C125.354 170.971 124.962 169.982 124.606 168.985C124.364 168.419 124.263 167.803 124.31 167.19C124.322 167.022 124.39 166.863 124.503 166.738C124.617 166.614 124.77 166.532 124.936 166.505C125.358 166.426 125.786 166.383 126.215 166.374C128.036 166.424 129.844 166.698 131.598 167.19C132.816 167.499 134.011 167.896 135.172 168.378C135.869 168.652 136.532 169.007 137.146 169.436C137.259 169.523 137.45 169.609 137.259 169.809C136.932 170.125 136.717 170.541 136.65 170.99C136.582 171.44 136.665 171.9 136.885 172.298C136.99 172.544 137.146 172.764 137.344 172.945C137.541 173.125 137.776 173.261 138.03 173.343C138.285 173.425 138.555 173.452 138.821 173.421C139.087 173.391 139.343 173.303 139.572 173.165C139.97 172.925 140.267 172.549 140.409 172.108C140.551 171.667 140.529 171.189 140.346 170.763C139.975 170.024 139.544 169.317 139.059 168.647C138.957 168.506 138.819 168.396 138.659 168.326C137.586 167.79 136.454 167.382 135.285 167.112C133.259 166.548 131.232 165.976 129.197 165.568C128.188 165.356 127.16 165.243 126.128 165.23C125.627 165.233 125.13 165.321 124.658 165.49C124.156 165.653 123.738 166.006 123.494 166.473C123.251 166.94 123.2 167.484 123.353 167.988C123.62 169.098 123.984 170.184 124.441 171.231C124.556 171.555 124.655 171.885 124.736 172.22C124.763 172.299 124.759 172.386 124.725 172.463C124.692 172.54 124.63 172.602 124.554 172.636C124.441 172.688 124.301 172.766 124.197 172.636C124.01 172.466 123.859 172.259 123.754 172.029C123.559 171.414 123.41 170.785 123.31 170.147C123.147 169.121 122.926 168.105 122.649 167.103C122.577 166.806 122.427 166.533 122.214 166.312C122.002 166.091 121.735 165.93 121.44 165.845C121.009 165.709 120.562 165.627 120.11 165.603C119.077 165.579 118.044 165.643 117.022 165.793C115.523 166.011 114.039 166.321 112.579 166.721C111.526 166.999 110.491 167.32 109.465 167.684C108.158 168.1 106.897 168.646 105.7 169.315C105.387 169.554 105.007 169.69 104.613 169.705C104.534 169.705 104.439 169.705 104.395 169.644C104.352 169.583 104.482 169.523 104.508 169.453C104.534 169.384 104.595 169.384 104.639 169.341C105.823 168.447 107.107 167.693 108.465 167.094C110.641 166.02 112.912 165.149 115.248 164.492C116.139 164.239 117.05 164.062 117.97 163.963C118.84 163.885 119.04 163.729 119.023 162.836C119.023 162.645 119.023 162.446 119.023 162.246C118.91 160.807 118.953 159.358 118.944 157.91C118.943 157.714 118.969 157.518 119.023 157.329C119.321 157.579 119.694 157.725 120.084 157.745H120.171C120.281 157.807 120.402 157.849 120.527 157.867C121.329 158.001 122.14 158.071 122.953 158.075C123.51 158.075 123.736 158.283 123.745 158.847C123.754 159.41 123.745 160.165 123.693 160.824C123.648 161.355 123.633 161.887 123.649 162.42C123.631 162.567 123.643 162.717 123.683 162.861C123.724 163.004 123.793 163.137 123.886 163.254C123.979 163.37 124.095 163.467 124.226 163.538C124.357 163.609 124.501 163.654 124.649 163.669C124.788 163.677 124.928 163.677 125.067 163.669C126.237 163.715 127.401 163.863 128.545 164.111C130.46 164.584 132.348 165.163 134.198 165.845C135.355 166.253 136.511 166.652 137.676 167.016C138.499 167.247 139.284 167.594 140.007 168.048C140.433 168.343 140.425 168.465 140.007 168.759C139.746 168.95 139.755 169.046 140.051 169.202C140.177 169.26 140.299 169.326 140.416 169.401C140.65 169.574 140.83 169.808 140.936 170.078C141.042 170.348 141.07 170.643 141.016 170.928C141.006 171.419 140.862 171.899 140.6 172.316C140.338 172.733 139.968 173.071 139.529 173.295C139.45 173.341 139.382 173.403 139.328 173.476C139.275 173.549 139.236 173.632 139.216 173.72C139.421 173.669 139.631 173.634 139.842 173.616C139.146 173.677 139.451 173.616 139.842 173.616C139.985 173.544 140.122 173.46 140.251 173.365C140.819 172.851 141.201 172.165 141.338 171.413C141.472 170.998 141.476 170.552 141.348 170.135C141.221 169.718 140.968 169.35 140.625 169.08C140.555 169.028 140.538 168.968 140.625 168.855C140.72 168.709 140.755 168.532 140.723 168.36C140.69 168.189 140.593 168.037 140.451 167.936C140.256 167.773 140.043 167.633 139.816 167.519C138.889 167.081 137.93 166.716 136.946 166.426C134.85 165.741 132.798 164.943 130.685 164.328C129.248 163.882 127.771 163.577 126.275 163.417C125.706 163.42 125.137 163.362 124.58 163.244C124.467 163.22 124.365 163.161 124.288 163.075C124.211 162.989 124.164 162.881 124.154 162.767C124.088 162.263 124.088 161.753 124.154 161.249C124.219 160.418 124.236 159.584 124.206 158.751C124.198 158.535 124.126 158.325 123.999 158.15C123.872 157.974 123.696 157.839 123.493 157.762C123.545 157.762 123.597 157.702 123.588 157.632V156.704L123.701 155.308C123.71 155.265 123.71 155.221 123.701 155.178C123.623 154.311 123.797 154.259 124.832 154.311H125.101C128.261 154.545 131.437 154.276 134.511 153.513C137.398 152.792 140.134 151.564 142.59 149.888C144.665 148.379 146.616 146.709 148.425 144.892C151.309 142.261 153.159 138.691 153.643 134.823C153.972 132.223 153.48 129.586 152.234 127.278ZM104.874 174.006C104.874 174.05 104.934 174.085 104.952 174.119C104.969 174.154 104.952 174.241 104.952 174.284C104.435 174.207 103.935 174.042 103.473 173.798C103.397 173.68 103.313 173.567 103.221 173.46C103.019 173.26 102.887 172.999 102.846 172.717C102.805 172.436 102.858 172.148 102.995 171.899C103.165 171.56 103.441 171.286 103.782 171.118C104.123 170.951 104.509 170.899 104.882 170.971C105.1 171.048 105.296 171.174 105.456 171.34C105.616 171.505 105.736 171.705 105.806 171.924C105.876 172.143 105.894 172.376 105.859 172.603C105.824 172.83 105.737 173.046 105.604 173.235C105.43 173.547 105.056 173.686 104.874 174.006ZM122.91 170.598C123.058 171.162 123.171 171.673 123.319 172.159C123.446 172.534 123.69 172.859 124.014 173.087C124.414 173.382 125.128 172.957 125.171 172.428C125.177 172.172 125.13 171.918 125.032 171.682C124.98 171.559 124.962 171.424 124.98 171.292C124.754 171.101 124.745 170.798 124.641 170.555C124.295 169.765 124.019 168.946 123.814 168.109C123.51 166.773 124.11 165.976 125.484 165.785C126.22 165.685 126.966 165.685 127.702 165.785C129.643 166.081 131.561 166.512 133.441 167.077C134.868 167.459 136.294 167.831 137.676 168.352C137.979 168.423 138.263 168.561 138.506 168.754C138.75 168.947 138.948 169.192 139.085 169.471C139.294 169.965 139.781 170.338 139.955 170.858C140.103 171.175 140.141 171.531 140.064 171.872C139.987 172.212 139.799 172.518 139.529 172.74C139.361 172.858 139.17 172.94 138.969 172.98C138.767 173.019 138.559 173.016 138.359 172.97C138.159 172.924 137.971 172.837 137.806 172.714C137.642 172.59 137.506 172.434 137.407 172.255C137.197 171.94 137.097 171.565 137.12 171.188C137.144 170.81 137.29 170.451 137.537 170.164C137.558 170.137 137.582 170.11 137.607 170.086C137.729 169.948 137.998 169.93 137.963 169.67C137.929 169.41 137.729 169.315 137.563 169.176C136.734 168.557 135.813 168.071 134.833 167.736C133.812 167.338 132.766 167.007 131.702 166.747C129.909 166.225 128.056 165.934 126.189 165.88C125.739 165.89 125.291 165.939 124.849 166.028C124.529 166.119 124.254 166.326 124.077 166.608C123.9 166.889 123.835 167.227 123.893 167.554C124.056 168.519 124.33 169.462 124.71 170.364C124.806 170.641 125.015 170.893 124.988 171.231C125.233 171.675 125.404 172.155 125.493 172.654C125.545 172.796 125.58 172.945 125.597 173.096C125.728 174.137 125.432 174.535 124.371 174.752L123.501 174.917C123.32 174.959 123.132 174.962 122.95 174.926C122.767 174.891 122.594 174.818 122.442 174.711C122.289 174.605 122.161 174.468 122.065 174.309C121.969 174.151 121.907 173.974 121.884 173.79C121.745 173.249 121.745 172.682 121.884 172.142C122.006 171.665 122.24 171.353 122.675 171.37C122.893 171.37 122.953 171.249 122.953 171.058C122.953 170.867 122.91 170.824 122.91 170.607V170.598ZM136.355 106.724C136.178 106.829 136.009 106.948 135.85 107.079C135.624 107.287 135.415 107.521 135.528 107.851C135.642 108.181 135.92 108.25 136.224 108.311C137.45 108.55 138.697 108.661 139.946 108.64C140.054 108.638 140.159 108.675 140.242 108.744L132.241 109.005C132.731 107.944 133.546 107.065 134.567 106.495C135.589 105.925 136.766 105.692 137.929 105.83L136.355 106.724ZM139.781 104.928C139.126 105.064 138.459 105.131 137.79 105.128C136.559 105.033 135.328 105.306 134.253 105.911C133.178 106.517 132.308 107.427 131.754 108.528C131.528 108.909 131.337 109.057 130.885 108.805C130.617 108.668 130.315 108.607 130.015 108.632H128.006C126.954 108.632 126.684 108.415 126.362 107.461C126.362 107.365 126.31 107.287 126.406 107.235C126.997 106.862 127.423 106.177 128.223 106.195C128.822 106.159 129.411 106.022 129.963 105.787C133.009 104.824 136.177 104.296 139.372 104.217L141.425 104.122L141.477 104.243C140.954 104.567 140.381 104.801 139.781 104.937V104.928ZM135.494 98.9436C137.877 98.0766 140.216 97.0356 142.564 96.0466C143.183 95.7216 143.889 95.5996 144.581 95.7006L143.042 96.2466C141.051 96.9406 139.146 97.8686 137.198 98.6666C135.171 99.5336 133.066 100.208 130.911 100.679C130.349 100.858 129.752 100.897 129.171 100.791C131.335 100.392 133.454 99.7756 135.494 98.9526V98.9436ZM112.883 98.0076C112.767 96.9826 112.922 95.9466 113.335 95.0006C113.747 94.0556 114.401 93.2356 115.231 92.6216C116.661 91.3346 118.523 90.6296 120.449 90.6436C121.539 90.6366 122.61 90.9376 123.536 91.5116C123.636 91.5646 123.723 91.6396 123.789 91.7316C123.856 91.8226 123.9 91.9286 123.919 92.0406C123.965 92.4276 124.118 92.7946 124.361 93.1006C124.603 93.4066 124.926 93.6406 125.293 93.7746C126.054 94.0426 126.738 94.4916 127.284 95.0846C127.523 95.4946 127.665 95.9536 127.701 96.4266C127.737 96.8996 127.666 97.3746 127.493 97.8166C127.31 98.5446 127.042 99.2496 126.693 99.9156C126.423 100.445 126.493 100.601 127.084 100.835C126.498 100.858 125.911 100.791 125.345 100.635C124.69 100.512 124.045 100.341 123.414 100.124C123.242 100.051 123.061 100.001 122.875 99.9756C123.24 100.115 123.545 100.254 123.545 100.332C123.232 100.332 123.293 100.783 123.032 100.757L123.484 100.87C124.625 101.182 125.788 101.408 126.963 101.546C128.595 101.682 130.239 101.541 131.824 101.13C134.784 100.35 137.666 99.2986 140.433 97.9896C141.972 97.2406 143.587 96.6586 145.251 96.2556C146.19 96.0736 146.669 96.4026 146.877 97.3996C147.125 98.6386 147.01 99.9226 146.548 101.099C146.086 102.275 145.294 103.294 144.268 104.035C143.657 104.485 142.905 104.707 142.146 104.659C142.477 104.347 143.016 104.235 142.816 103.792C142.616 103.35 142.207 103.445 141.851 103.454C139.09 103.46 136.335 103.7 133.615 104.174C132.03 104.453 130.473 104.874 128.963 105.431C128.537 105.596 128.093 105.431 127.606 105.622C127.317 105.685 127.047 105.813 126.815 105.995C125.705 106.961 124.382 107.65 122.953 108.007C121.997 108.337 121.023 108.623 120.049 108.926C119.831 108.996 119.649 109.109 119.666 109.351C119.684 109.594 119.927 109.69 120.127 109.698C122.049 109.785 123.875 109.534 125.345 108.137C125.754 107.756 125.797 107.764 125.971 108.276C126.249 109.065 126.936 109.143 127.632 109.247C128.328 109.351 128.928 109.247 129.58 109.247C129.806 109.21 130.037 109.263 130.224 109.395C126.27 110.208 122.202 110.305 118.214 109.681C118.944 108.302 117.588 108.077 116.97 107.365C117.215 107.338 117.463 107.355 117.701 107.417C118.845 107.659 120.01 107.795 121.179 107.825C121.353 107.847 121.528 107.847 121.701 107.825C122.066 107.73 122.493 107.704 122.571 107.183C122.599 106.965 122.556 106.743 122.448 106.551C122.34 106.358 122.173 106.206 121.971 106.117C121.28 105.806 120.529 105.649 119.771 105.657C118.579 105.57 117.379 105.535 116.179 105.483C115.846 105.478 115.517 105.404 115.214 105.267C115.083 105.206 114.883 105.163 114.935 104.946C114.988 104.729 115.153 104.72 115.309 104.703C115.747 104.665 116.188 104.68 116.622 104.746C117.91 104.928 119.231 105.145 120.484 105.284C121.569 105.45 122.679 105.315 123.693 104.894C123.836 104.85 123.96 104.762 124.048 104.641C124.136 104.521 124.182 104.375 124.18 104.226C124.18 103.87 123.91 103.697 123.588 103.575C122.316 103.222 120.991 103.096 119.675 103.202C118.51 103.223 117.346 103.142 116.196 102.96C115.972 102.907 115.76 102.813 115.57 102.682C115.987 102.405 116.496 102.303 116.988 102.396C117.955 102.585 118.941 102.666 119.927 102.639C120.42 102.616 120.906 102.507 121.362 102.318C121.692 102.179 121.997 101.954 121.919 101.537C121.84 101.121 121.527 101.052 121.153 101.052C119.87 101.001 118.59 100.885 117.318 100.705C117.318 100.705 117.318 100.627 117.318 100.618C118.049 100.21 118.057 100.106 117.396 99.5686C117.396 99.5686 117.301 99.5166 117.266 99.4816C117.231 99.4466 116.927 99.1606 117.014 98.9436C117.101 98.7266 117.362 98.8226 117.527 98.8566C118.259 99.0326 118.975 99.2706 119.666 99.5686C119.988 99.6806 121.405 100.141 122.275 100.436L122.127 100.349C122.221 100.21 122.352 100.101 122.507 100.034C122.661 99.9676 122.831 99.9476 122.997 99.9756C122.484 99.7846 121.849 99.6026 121.779 99.5766C120.527 99.1346 119.284 98.7096 118.023 98.2496C117.768 98.1786 117.504 98.1466 117.24 98.1546C116.483 98.1546 116.135 98.6486 116.414 99.3596C116.414 99.4646 116.605 99.5336 116.509 99.7326C116.449 99.8026 116.353 99.7326 116.275 99.6546C115.648 99.1946 114.876 98.9766 114.1 99.0396C113.161 99.0566 112.961 98.8826 112.857 98.0156L112.883 98.0076ZM96.664 107.548C95.515 106.077 94.483 104.52 93.577 102.89C94.725 104.339 96.36 105.492 96.638 107.565L96.664 107.548ZM152.939 135.396C152.487 138.244 151.208 140.897 149.26 143.028C147.641 144.8 145.898 146.455 144.042 147.98C141.301 150.241 138.104 151.889 134.668 152.81C131.83 153.541 128.897 153.833 125.971 153.678C125.284 153.678 124.597 153.626 123.91 153.678C123.223 153.73 123.145 153.912 123.11 154.493C123.11 154.727 123.11 154.961 123.11 155.187H123.058C123.028 155.426 123.028 155.667 123.058 155.907C123.065 156.488 123.114 157.067 123.206 157.641V157.684C123.133 157.675 123.06 157.675 122.988 157.684C122.372 157.69 121.756 157.652 121.145 157.572C120.949 157.561 120.754 157.538 120.562 157.502C120.563 157.471 120.554 157.44 120.537 157.414C120.52 157.388 120.495 157.367 120.466 157.355L120.301 157.277C120.34 157.248 120.38 157.222 120.423 157.199L119.875 157.043C119.639 156.931 119.395 156.839 119.144 156.765H119.057V156.661C118.988 156.184 118.962 155.629 118.849 155.126H118.953C118.951 154.863 118.919 154.601 118.857 154.345C118.753 153.86 118.527 153.712 117.988 153.747C115.407 153.918 112.817 153.854 110.248 153.556C109.405 153.487 108.571 153.33 107.761 153.088C107.491 153.001 107.109 152.914 107.065 152.628C107.022 152.342 107.378 152.229 107.63 152.099C108.533 151.678 109.49 151.386 110.474 151.232C111.97 150.928 113.483 150.72 115.005 150.521C117.301 150.209 119.614 150.044 121.91 149.653C123.649 149.35 125.388 149.046 127.128 148.595C129.111 148.086 131.037 147.377 132.876 146.479C134.25 145.851 135.356 144.757 135.998 143.392C136.236 142.978 136.306 142.488 136.195 142.024C136.083 141.56 135.798 141.156 135.398 140.894C134.972 140.642 134.492 140.49 133.998 140.452C132.309 140.365 130.63 140.746 129.145 141.553C127.406 142.42 125.78 143.409 123.971 144.094C122.032 144.84 120.075 145.543 118.075 146.124C115.614 146.827 113.114 147.383 110.587 147.789C108.404 148.165 106.2 148.402 103.987 148.5C100.964 148.671 97.935 148.295 95.047 147.39C93.406 146.938 91.884 146.136 90.585 145.04C86.811 141.51 85.211 137.234 86.315 132.091L86.55 131.701C86.545 131.661 86.545 131.62 86.55 131.58C86.766 130.929 87.058 130.306 87.42 129.724C87.42 129.646 87.515 129.576 87.559 129.507C87.315 129.81 87.098 130.105 86.846 130.374C86.794 130.435 86.646 130.374 86.576 130.27C86.507 130.166 86.576 130.079 86.655 130.01C86.872 129.784 87.255 129.646 86.985 129.212C86.933 129.125 87.098 129.021 87.194 129.03C87.42 129.03 87.463 129.264 87.594 129.429C88.023 128.673 88.652 128.05 89.411 127.625C90.075 127.264 90.833 127.113 91.585 127.191C92.132 127.21 92.663 127.381 93.118 127.684C93.572 127.988 93.933 128.412 94.16 128.908L94.247 129.012C94.57 129.509 94.729 130.095 94.699 130.686C94.837 131.869 94.749 133.067 94.438 134.216C94.251 134.914 94.181 135.638 94.229 136.358C94.391 137.749 94.851 139.089 95.577 140.287C95.828 140.673 96.208 140.959 96.649 141.094C97.09 141.229 97.565 141.205 97.99 141.026C98.415 140.847 98.764 140.525 98.974 140.115C99.185 139.706 99.245 139.235 99.143 138.787C98.812 137.65 98.43 136.523 98.064 135.396C97.195 132.837 96.403 130.279 95.56 127.729C94.4 124.419 93.418 121.049 92.62 117.634C92.263 116.218 92.134 114.754 92.238 113.298C92.266 112.628 92.518 111.988 92.952 111.477C93.387 110.967 93.98 110.615 94.638 110.479C95.603 110.218 96.595 110.066 97.595 110.028C99.83 109.846 102.065 109.924 104.3 109.906C104.865 109.906 105.43 109.906 105.987 109.906C107.282 109.811 107.665 109.109 107.039 107.99C106.447 106.945 105.766 105.953 105.004 105.024C104.129 103.838 102.889 102.97 101.473 102.552C100.329 102.315 99.155 102.265 97.995 102.405C97.206 102.485 96.41 102.402 95.655 102.162C95.19 101.95 94.67 101.889 94.168 101.988C94.068 102.019 93.959 102.012 93.863 101.969C93.767 101.926 93.69 101.85 93.646 101.754C93.169 101.028 92.786 100.244 92.507 99.4206C92.066 98.2326 91.929 96.9546 92.107 95.7006C92.116 95.4396 92.19 95.1856 92.322 94.9606C92.455 94.7356 92.641 94.5476 92.864 94.4126C93.088 94.2776 93.342 94.1996 93.603 94.1866C93.864 94.1736 94.124 94.2256 94.36 94.3386C95.036 94.6236 95.738 94.8436 96.455 94.9976C98.805 95.3906 101.088 96.1086 103.239 97.1316C105.221 98.0506 107.169 99.0216 109.135 99.9756C110.297 100.656 111.677 100.861 112.987 100.549C113.789 100.334 114.642 100.417 115.388 100.783C116.132 101.093 116.917 101.297 117.718 101.39C118.741 101.544 119.772 101.645 120.805 101.693C120.745 101.841 120.649 101.832 120.562 101.85C119.507 102.051 118.421 102.021 117.379 101.763C116.705 101.609 115.998 101.682 115.37 101.971C115.229 102.022 115.106 102.113 115.016 102.233C114.926 102.354 114.874 102.498 114.866 102.647C114.867 102.789 114.909 102.926 114.988 103.043C115.067 103.161 115.179 103.252 115.309 103.307C115.855 103.563 116.446 103.71 117.049 103.74C118.675 103.966 120.318 103.74 121.953 103.888C122.495 103.897 123.028 104.031 123.51 104.278C122.598 104.622 121.616 104.739 120.649 104.616C119.362 104.46 118.04 104.252 116.788 104.087C116.17 103.944 115.527 103.944 114.909 104.087C114.737 104.128 114.583 104.225 114.473 104.364C114.362 104.502 114.302 104.673 114.3 104.85C114.288 105.034 114.334 105.217 114.432 105.373C114.531 105.529 114.676 105.65 114.848 105.718C115.247 105.903 115.678 106.009 116.118 106.03C117.292 106.073 118.475 106.108 119.649 106.212C120.352 106.176 121.052 106.319 121.684 106.628C121.797 106.698 121.927 106.724 121.91 106.88C121.892 107.036 121.727 107.071 121.597 107.088C121.124 107.121 120.649 107.107 120.179 107.044C118.866 106.932 117.57 106.628 116.266 106.481C116.031 106.481 115.735 106.403 115.614 106.68C115.492 106.958 115.683 107.166 115.901 107.331C116.483 107.756 117.057 108.198 117.64 108.614C117.753 108.701 117.918 108.822 117.788 109.005C117.742 109.071 117.674 109.119 117.597 109.142C117.519 109.164 117.436 109.158 117.362 109.126C117.057 109.009 116.766 108.861 116.492 108.684C115.518 108.016 114.701 107.175 113.77 106.472C113.527 106.29 113.222 106.16 113.092 105.848C112.689 105.004 112.119 104.251 111.416 103.632C110.714 103.014 109.894 102.543 109.004 102.248C106.291 101.281 103.441 100.745 100.56 100.661C100.143 100.661 99.873 100.757 99.786 101.173C99.699 101.589 99.995 101.763 100.325 101.876C102.019 102.467 103.767 102.891 105.543 103.142C108.096 103.588 110.492 104.681 112.5 106.316C112.857 106.585 112.839 106.776 112.439 106.949C112.264 107.014 112.115 107.133 112.013 107.289C111.911 107.446 111.863 107.63 111.874 107.816C111.883 108.027 111.849 108.237 111.776 108.435C111.703 108.633 111.592 108.815 111.448 108.97C111.309 109.143 111.152 109.299 111.265 109.525C111.378 109.75 111.622 109.716 111.831 109.724C112.953 109.785 114.083 109.724 115.205 109.863C117.283 110.106 119.362 110.349 121.44 110.548C123.267 110.674 125.101 110.674 126.928 110.548C128.737 110.453 130.45 109.802 132.25 109.681C132.98 109.629 133.702 109.455 134.45 109.455C135.676 109.455 136.911 109.456 138.137 109.377C139.701 109.289 141.27 109.37 142.816 109.62C143.656 109.72 144.443 110.08 145.067 110.649C145.691 111.219 146.121 111.969 146.295 112.794C146.668 114.348 146.73 115.961 146.477 117.538C146.385 118.358 146.06 119.135 145.541 119.777C145.022 120.419 144.33 120.9 143.547 121.164C141.884 121.806 140.112 122.124 138.329 122.1C130.401 122.301 122.47 121.968 114.587 121.103C112.544 120.851 110.509 120.591 108.5 120.236C107.013 119.966 105.507 119.812 103.995 119.776C102.234 119.621 100.469 120.025 98.951 120.929C97.56 121.875 97.108 122.95 97.873 124.459C98.352 125.303 99.116 125.949 100.03 126.281C101.333 126.803 102.703 127.142 104.1 127.287C106.828 127.592 109.579 127.65 112.318 127.46C114.631 127.347 116.944 127.148 119.275 126.896C121.11 126.706 122.936 126.471 124.762 126.211C126.589 125.951 128.484 125.647 130.337 125.344C132.606 124.988 134.885 124.641 137.155 124.277C138.032 124.094 138.93 124.027 139.825 124.078C140.326 124.103 140.813 124.25 141.244 124.507C141.675 124.764 142.035 125.123 142.294 125.552C142.863 126.667 143.087 127.926 142.938 129.169C142.754 131.492 142.373 133.796 141.799 136.055C141.501 137.189 141.332 138.352 141.294 139.524C141.294 140.391 141.659 140.738 142.564 140.929C142.887 141.003 143.227 140.955 143.517 140.795C143.808 140.635 144.029 140.374 144.138 140.061C144.539 139.124 144.746 138.115 144.747 137.095C144.755 134.571 144.965 132.051 145.373 129.559C145.461 128.791 145.759 128.063 146.232 127.451C146.706 126.84 147.338 126.369 148.06 126.09C148.641 125.815 149.303 125.764 149.919 125.947C150.536 126.129 151.063 126.532 151.399 127.078C152.946 129.564 153.487 132.544 152.913 135.413L152.939 135.396ZM116.048 109.377C114.848 109.23 113.64 109.299 112.439 109.187C112.274 109.187 112.187 109.083 112.257 108.892C112.335 108.776 112.38 108.641 112.387 108.502C112.3 107.851 112.631 107.634 113.196 107.4C113.3 107.343 113.421 107.322 113.538 107.339C113.656 107.356 113.765 107.411 113.848 107.495C114.553 108.094 115.231 108.753 116.022 109.36L116.048 109.377ZM111.483 104.859C111.02 104.699 110.586 104.468 110.196 104.174C108.305 103.17 106.238 102.54 104.108 102.318C103.152 102.142 102.209 101.908 101.282 101.615C103.926 101.017 110.352 103.072 111.457 104.842L111.483 104.859Z" fill="#231F20"/>
<path d="M291.996 106.835L207.522 106.835L207.521 191.309L291.995 191.308L291.996 106.835Z" fill="#1C1D21"/>
<path d="M217.519 172.293V168.207L231.959 152.162C234.543 149.275 236.289 146.985 237.197 145.289C238.125 143.594 238.589 141.858 238.59 140.082C238.59 137.882 237.944 136.036 236.652 134.542C235.36 133.029 233.655 132.272 231.536 132.272C228.488 132.272 226.248 133.049 224.815 134.603C223.382 136.157 222.666 138.357 222.666 141.203H216.944L216.883 141.021C216.783 137.227 218.034 134.038 220.637 131.455C223.261 128.871 226.894 127.58 231.536 127.579C235.512 127.579 238.67 128.74 241.011 131.061C243.373 133.362 244.553 136.298 244.553 139.87C244.553 142.272 243.837 144.674 242.404 147.075C240.991 149.477 238.993 152.071 236.41 154.856L224.815 167.48L224.875 167.631H240.527L241.011 162.575H246.067V172.293H217.519ZM280.579 155.491C280.579 161.122 279.327 165.441 276.825 168.448C274.322 171.435 270.901 172.929 266.562 172.929C262.243 172.929 258.822 171.425 256.299 168.418C253.776 165.411 252.515 161.102 252.515 155.491V145.047C252.515 139.436 253.767 135.127 256.269 132.12C258.772 129.093 262.183 127.579 266.502 127.579C270.841 127.579 274.272 129.093 276.795 132.12C279.317 135.127 280.579 139.436 280.579 145.047V155.491ZM274.615 143.775C274.615 139.961 273.919 137.095 272.526 135.178C271.154 133.24 269.146 132.271 266.502 132.272C263.898 132.272 261.91 133.24 260.538 135.178C259.165 137.095 258.479 139.961 258.479 143.775V156.702C258.479 160.517 259.175 163.403 260.568 165.36C261.96 167.298 263.958 168.267 266.562 168.267C269.206 168.267 271.204 167.298 272.556 165.36C273.928 163.423 274.615 160.537 274.615 156.702V143.775Z" fill="white"/>
<path d="M314.168 141.182L310.135 136.014V135.754L314.168 130.572H315.617L311.844 135.891L315.617 141.182H314.168ZM318.393 141.182L314.359 136.014V135.754L318.393 130.572H319.842L316.068 135.891L319.842 141.182H318.393ZM322.631 143V141.811L324.859 141.633V124.475L322.631 124.297V123.094H341.689V124.297L339.461 124.475V141.633L341.689 141.811V143H335.592V141.811L337.82 141.633V124.475H326.5V141.633L328.729 141.811V143H322.631ZM350.754 143.287C349.432 143.287 348.279 142.973 347.295 142.344C346.311 141.706 345.545 140.826 344.998 139.705C344.46 138.575 344.191 137.285 344.191 135.836V135.385C344.191 133.936 344.46 132.65 344.998 131.529C345.545 130.408 346.306 129.529 347.281 128.891C348.266 128.253 349.414 127.934 350.727 127.934C352.048 127.934 353.197 128.253 354.172 128.891C355.156 129.529 355.917 130.408 356.455 131.529C357.002 132.641 357.275 133.926 357.275 135.385V135.836C357.275 137.294 357.002 138.584 356.455 139.705C355.917 140.826 355.161 141.706 354.186 142.344C353.21 142.973 352.066 143.287 350.754 143.287ZM350.754 141.92C351.766 141.92 352.636 141.651 353.365 141.113C354.094 140.576 354.655 139.846 355.047 138.926C355.439 138.005 355.635 136.975 355.635 135.836V135.385C355.635 134.255 355.434 133.234 355.033 132.322C354.641 131.402 354.081 130.673 353.352 130.135C352.622 129.588 351.747 129.314 350.727 129.314C349.706 129.314 348.826 129.588 348.088 130.135C347.359 130.673 346.798 131.402 346.406 132.322C346.023 133.234 345.832 134.255 345.832 135.385V135.836C345.832 136.984 346.023 138.019 346.406 138.939C346.798 139.851 347.363 140.576 348.102 141.113C348.84 141.651 349.724 141.92 350.754 141.92ZM360.01 143V141.811L362.238 141.633V129.588L360.01 129.41V128.207H362.238H367.666C369.516 128.207 370.947 128.535 371.959 129.191C372.98 129.848 373.49 130.832 373.49 132.145C373.49 132.91 373.253 133.585 372.779 134.168C372.314 134.742 371.658 135.152 370.811 135.398C371.786 135.562 372.574 135.973 373.176 136.629C373.786 137.285 374.092 138.042 374.092 138.898C374.092 140.238 373.6 141.259 372.615 141.961C371.64 142.654 370.305 143 368.609 143H360.01ZM363.879 141.646H368.609C369.831 141.646 370.774 141.41 371.439 140.936C372.114 140.452 372.451 139.764 372.451 138.871C372.451 138.051 372.109 137.399 371.426 136.916C370.751 136.424 369.812 136.178 368.609 136.178H363.879V141.646ZM363.879 134.824H367.816C369.138 134.824 370.141 134.605 370.824 134.168C371.508 133.721 371.85 133.061 371.85 132.186C371.85 130.445 370.455 129.574 367.666 129.574H363.879V134.824ZM377.1 143V141.811L379.328 141.633V129.588L377.1 129.41V128.207H383.197V129.41L380.969 129.588V134.838H388.926V129.588L386.697 129.41V128.207H388.926H390.58H392.809V129.41L390.58 129.588V141.633L392.809 141.811V143H386.697V141.811L388.926 141.633V136.205H380.969V141.633L383.197 141.811V143H377.1ZM395.857 143V141.811L398.086 141.633V129.588L395.857 129.41V128.207H399.727H401.955V129.41L399.727 129.588V140.225L399.809 140.252L407.697 128.207H409.338H411.566V129.41L409.338 129.588V141.633L411.566 141.811V143H405.469V141.811L407.697 141.633V130.982L407.615 130.955L399.727 143H395.857ZM414.615 143V141.811L416.844 141.633V129.588L414.615 129.41V128.207H418.484H420.713V129.41L418.484 129.588V140.225L418.566 140.252L426.455 128.207H428.096H430.324V129.41L428.096 129.588V141.633L430.324 141.811V143H424.227V141.811L426.455 141.633V130.982L426.373 130.955L418.484 143H414.615ZM422.545 125.268C421.296 125.268 420.316 124.944 419.605 124.297C418.895 123.641 418.544 122.793 418.553 121.754L418.58 121.672H419.906C419.906 122.383 420.116 122.962 420.535 123.408C420.964 123.855 421.633 124.078 422.545 124.078C423.42 124.078 424.072 123.855 424.5 123.408C424.938 122.952 425.156 122.374 425.156 121.672H426.496L426.523 121.754C426.514 122.793 426.154 123.641 425.443 124.297C424.742 124.944 423.775 125.268 422.545 125.268ZM310.326 179V177.811L312.555 177.633V165.588L310.326 165.41V164.207H326.035V165.41L323.807 165.588V177.633L326.035 177.811V179H319.938V177.811L322.166 177.633V165.602H314.195V177.633L316.424 177.811V179H310.326ZM335.578 179.287C334.257 179.287 333.104 178.973 332.119 178.344C331.135 177.706 330.369 176.826 329.822 175.705C329.285 174.575 329.016 173.285 329.016 171.836V171.385C329.016 169.936 329.285 168.65 329.822 167.529C330.369 166.408 331.13 165.529 332.105 164.891C333.09 164.253 334.238 163.934 335.551 163.934C336.872 163.934 338.021 164.253 338.996 164.891C339.98 165.529 340.742 166.408 341.279 167.529C341.826 168.641 342.1 169.926 342.1 171.385V171.836C342.1 173.294 341.826 174.584 341.279 175.705C340.742 176.826 339.985 177.706 339.01 178.344C338.035 178.973 336.891 179.287 335.578 179.287ZM335.578 177.92C336.59 177.92 337.46 177.651 338.189 177.113C338.919 176.576 339.479 175.846 339.871 174.926C340.263 174.005 340.459 172.975 340.459 171.836V171.385C340.459 170.255 340.258 169.234 339.857 168.322C339.465 167.402 338.905 166.673 338.176 166.135C337.447 165.588 336.572 165.314 335.551 165.314C334.53 165.314 333.65 165.588 332.912 166.135C332.183 166.673 331.622 167.402 331.23 168.322C330.848 169.234 330.656 170.255 330.656 171.385V171.836C330.656 172.984 330.848 174.019 331.23 174.939C331.622 175.851 332.188 176.576 332.926 177.113C333.664 177.651 334.548 177.92 335.578 177.92ZM344.26 184.688V183.484L346.434 183.307V165.588L344.205 165.41V164.207H347.801L348.006 166.463C348.498 165.661 349.132 165.041 349.906 164.604C350.69 164.157 351.611 163.934 352.668 163.934C353.862 163.934 354.883 164.257 355.73 164.904C356.578 165.542 357.225 166.445 357.672 167.611C358.128 168.769 358.355 170.141 358.355 171.727V172.014C358.355 173.481 358.128 174.762 357.672 175.855C357.216 176.94 356.569 177.783 355.73 178.385C354.892 178.986 353.885 179.287 352.709 179.287C351.661 179.287 350.745 179.091 349.961 178.699C349.186 178.307 348.557 177.76 348.074 177.059V183.307L350.357 183.484V184.688H344.26ZM352.326 177.92C353.757 177.92 354.842 177.382 355.58 176.307C356.327 175.231 356.701 173.8 356.701 172.014V171.727C356.701 170.469 356.533 169.361 356.195 168.404C355.858 167.447 355.361 166.7 354.705 166.162C354.058 165.615 353.256 165.342 352.299 165.342C351.178 165.342 350.275 165.615 349.592 166.162C348.917 166.709 348.411 167.402 348.074 168.24V175.295C348.421 176.106 348.949 176.749 349.66 177.223C350.371 177.688 351.26 177.92 352.326 177.92ZM360.775 179V177.811L362.553 177.674L365.492 172.82C364.462 172.565 363.669 172.064 363.113 171.316C362.557 170.569 362.279 169.671 362.279 168.623C362.279 167.748 362.489 166.982 362.908 166.326C363.327 165.661 363.934 165.141 364.727 164.768C365.529 164.394 366.481 164.207 367.584 164.207H375.637V165.41L373.408 165.588V177.633L375.637 177.811V179H369.539V177.811L371.768 177.633V173.039H367.174L363.564 179H360.775ZM367.146 171.658H371.768V165.574H367.584C366.363 165.574 365.447 165.87 364.836 166.463C364.225 167.055 363.92 167.785 363.92 168.65C363.92 169.489 364.189 170.2 364.727 170.783C365.264 171.367 366.071 171.658 367.146 171.658ZM378.357 183.348L378.234 177.633H379.301C379.702 177.122 380.057 176.626 380.367 176.143C380.677 175.65 380.941 175.108 381.16 174.516C381.388 173.923 381.57 173.226 381.707 172.424C381.853 171.622 381.958 170.66 382.021 169.539L382.213 165.574L380.039 165.41V164.207H391.004H393.232V165.41L391.004 165.588V177.633H392.549L392.426 183.348H390.908V179H379.793V183.348H378.357ZM381.229 177.633H389.363V165.711H383.84L383.662 169.539C383.553 171.48 383.284 173.103 382.855 174.406C382.436 175.71 381.894 176.785 381.229 177.633ZM402.625 179.287C401.303 179.287 400.15 178.973 399.166 178.344C398.182 177.706 397.416 176.826 396.869 175.705C396.331 174.575 396.062 173.285 396.062 171.836V171.385C396.062 169.936 396.331 168.65 396.869 167.529C397.416 166.408 398.177 165.529 399.152 164.891C400.137 164.253 401.285 163.934 402.598 163.934C403.919 163.934 405.068 164.253 406.043 164.891C407.027 165.529 407.788 166.408 408.326 167.529C408.873 168.641 409.146 169.926 409.146 171.385V171.836C409.146 173.294 408.873 174.584 408.326 175.705C407.788 176.826 407.032 177.706 406.057 178.344C405.081 178.973 403.938 179.287 402.625 179.287ZM402.625 177.92C403.637 177.92 404.507 177.651 405.236 177.113C405.965 176.576 406.526 175.846 406.918 174.926C407.31 174.005 407.506 172.975 407.506 171.836V171.385C407.506 170.255 407.305 169.234 406.904 168.322C406.512 167.402 405.952 166.673 405.223 166.135C404.493 165.588 403.618 165.314 402.598 165.314C401.577 165.314 400.697 165.588 399.959 166.135C399.23 166.673 398.669 167.402 398.277 168.322C397.895 169.234 397.703 170.255 397.703 171.385V171.836C397.703 172.984 397.895 174.019 398.277 174.939C398.669 175.851 399.234 176.576 399.973 177.113C400.711 177.651 401.595 177.92 402.625 177.92ZM411.881 179V177.811L414.109 177.633V165.588L411.881 165.41V164.207H417.992V165.41L415.764 165.588V170.77H417.951L421.561 166.162C422.162 165.369 422.704 164.813 423.188 164.494C423.68 164.166 424.222 164.002 424.814 164.002C425.106 164.002 425.37 164.043 425.607 164.125C425.854 164.207 426.104 164.33 426.359 164.494L426.004 165.684C425.758 165.611 425.585 165.561 425.484 165.533C425.384 165.506 425.247 165.492 425.074 165.492C424.664 165.492 424.295 165.606 423.967 165.834C423.639 166.062 423.26 166.445 422.832 166.982L419.387 171.357L425.006 177.646L426.906 177.811V179H424.008L418.02 172.205H415.764V177.633L417.992 177.811V179H411.881ZM429.025 176.785L432.785 171.48L429.025 166.094H430.475L434.494 171.344V171.604L430.475 176.785H429.025ZM433.332 176.785L437.092 171.48L433.332 166.094H434.781L438.801 171.344V171.604L434.781 176.785H433.332Z" fill="#606063"/>
</g>
</g>
<defs>
<clipPath id="clip0_3_271">
<rect width="538" height="300" fill="white"/>
</clipPath>
</defs>
</svg>
